<svg width="98" height="31" viewBox="0 0 98 31" fill="none" xmlns="http://www.w3.org/2000/svg">
<g clip-path="url(#clip0_2103_7230)">
<mask id="mask0_2103_7230" style="mask-type:luminance" maskUnits="userSpaceOnUse" x="0" y="0" width="97" height="30">
<path d="M96.8766 0.815918H0.538574V29.8213H96.8766V0.815918Z" fill="white"/>
</mask>
<g mask="url(#mask0_2103_7230)">
<path fill-rule="evenodd" clip-rule="evenodd" d="M60.308 23.5002C54.7315 27.6229 46.6211 29.8198 39.6253 29.8198C30.2938 29.8662 21.2802 26.4318 14.3457 20.1875C13.8392 19.7144 14.2776 19.0718 14.9226 19.4444C21.6379 23.309 29.1565 25.567 36.8899 26.0418C44.6232 26.5166 52.3615 25.1953 59.4992 22.1814C60.443 21.811 61.2207 22.8287 60.308 23.5002Z" fill="#05073C"/>
<path fill-rule="evenodd" clip-rule="evenodd" d="M62.6394 20.8304C61.9297 19.9177 57.9086 20.3908 56.1167 20.6273C55.5755 20.6954 55.474 20.2223 55.9817 19.8842C59.1928 17.6204 64.4301 18.2954 65.0394 19.0396C65.6486 19.7839 64.8709 25.0558 61.8628 27.5562C61.3897 27.9277 60.9501 27.7246 61.1532 27.2181C61.8282 25.5289 63.349 21.7766 62.6394 20.8304Z" fill="#05073C"/>
<path fill-rule="evenodd" clip-rule="evenodd" d="M56.2184 4.0004V1.8081C56.2146 1.73602 56.226 1.66396 56.2518 1.59658C56.2776 1.52919 56.3174 1.46799 56.3684 1.41695C56.4194 1.36592 56.4807 1.32617 56.5481 1.30033C56.6154 1.27449 56.6874 1.26312 56.7596 1.26695H66.5569C66.7049 1.2632 66.8483 1.31786 66.9563 1.41914C67.0643 1.52042 67.128 1.66017 67.1338 1.8081V3.66693C67.1338 3.97155 66.8638 4.37656 66.3907 5.05156L61.3219 12.2839C63.2535 12.1798 65.1785 12.5865 66.903 13.4631C67.0527 13.5487 67.1779 13.6714 67.2666 13.8193C67.3552 13.9672 67.4045 14.1353 67.4096 14.3077V16.6396C67.4096 16.9777 67.0715 17.3492 66.6999 17.1462C65.1008 16.3185 63.3255 15.8893 61.5248 15.8952C59.7243 15.9009 57.9517 16.3416 56.358 17.1796C56.2774 17.2085 56.1909 17.2175 56.106 17.2056C56.0212 17.1938 55.9404 17.1616 55.8708 17.1119C55.8011 17.0622 55.7444 16.9963 55.7056 16.9198C55.667 16.8434 55.6473 16.7587 55.6484 16.6731V14.4392C55.6152 13.9169 55.745 13.3972 56.0199 12.9519L61.9046 4.53693H56.8011C56.6531 4.54068 56.5095 4.48603 56.4016 4.38474C56.2936 4.28346 56.2298 4.14372 56.2242 3.99578L56.2184 4.0004ZM20.4965 17.6158H17.5184C17.3851 17.6024 17.2599 17.5456 17.1621 17.4541C17.0644 17.3625 16.9994 17.2414 16.9773 17.1092V1.8381C16.983 1.69017 17.0467 1.55042 17.1547 1.44914C17.2627 1.34786 17.4061 1.2932 17.5542 1.29695H20.3234C20.4605 1.29881 20.5919 1.35175 20.6921 1.44544C20.7921 1.53913 20.8537 1.66682 20.8646 1.80348V3.79732H20.9326C21.1957 2.97312 21.7141 2.25389 22.4128 1.74355C23.1114 1.23321 23.9542 0.958169 24.8194 0.958169C25.6845 0.958169 26.5274 1.23321 27.2261 1.74355C27.9246 2.25389 28.4429 2.97312 28.7061 3.79732C29.0026 2.94759 29.562 2.21438 30.3034 1.70401C31.0446 1.19364 31.9291 0.932653 32.8288 0.958873C33.4966 0.945399 34.1579 1.09178 34.7577 1.38583C35.3574 1.67987 35.8782 2.11306 36.2765 2.64925C37.2226 3.93348 37.0196 5.79233 37.0196 7.4481V17.1139C37.0138 17.2618 36.9501 17.4015 36.8421 17.5028C36.7341 17.6041 36.5907 17.6588 36.4426 17.655H33.5026C33.3619 17.6466 33.2291 17.5868 33.1294 17.4871C33.0297 17.3874 32.97 17.2546 32.9615 17.1139V9.00347C33.0068 8.04538 32.984 7.08529 32.8934 6.13041C32.8314 5.72393 32.6123 5.35802 32.2831 5.11156C31.9541 4.8651 31.5413 4.75779 31.1338 4.81272C30.7459 4.82391 30.3697 4.94825 30.0515 5.17048C29.7334 5.3927 29.487 5.7031 29.343 6.06346C29.0982 7.02302 29.007 8.01537 29.073 9.00347V17.1139C29.0674 17.2618 29.0036 17.4015 28.8956 17.5028C28.7876 17.6041 28.6441 17.6588 28.4961 17.655H25.5226C25.3819 17.6466 25.2491 17.5868 25.1494 17.4871C25.0497 17.3874 24.99 17.2546 24.9815 17.1139V9.00347C24.9815 7.31309 25.2515 4.77927 23.1561 4.77927C21.0273 4.77927 21.0942 7.2127 21.0942 9.00347V17.1139C21.0729 17.2583 20.9992 17.39 20.8869 17.4834C20.7748 17.5769 20.6321 17.6257 20.4861 17.6204L20.4965 17.6158ZM75.5834 0.95426C80.0107 0.95426 82.4107 4.73887 82.4107 9.57233C82.4107 14.2362 79.7742 17.9539 75.5834 17.9539C71.2576 17.9539 68.8911 14.1692 68.8911 9.43733C68.8576 4.67195 71.2565 0.95426 75.5834 0.95426ZM75.5834 4.09733C73.3911 4.09733 73.2515 7.1054 73.2515 8.96424C73.2515 10.8231 73.218 14.8108 75.5499 14.8108C77.8484 14.8108 77.9834 11.5996 77.9834 9.6404C78.0249 8.27466 77.877 6.90977 77.5438 5.58465C77.4515 5.14208 77.2018 4.74796 76.8411 4.47534C76.4805 4.20272 76.0332 4.07009 75.5823 4.10195L75.5834 4.09733ZM88.1211 17.6158H85.1476C85.0069 17.6074 84.8741 17.5476 84.7744 17.4478C84.6747 17.3481 84.615 17.2154 84.6065 17.0746V1.77003C84.6252 1.63012 84.6939 1.5017 84.8 1.40857C84.906 1.31545 85.0423 1.26389 85.1834 1.26346H87.9526C88.0784 1.26767 88.1994 1.31293 88.2972 1.3923C88.3948 1.47168 88.4639 1.58081 88.4938 1.70309V4.03501H88.5619C89.4065 1.93963 90.5557 0.96 92.6176 0.96C93.3037 0.92883 93.986 1.07773 94.5966 1.39188C95.2073 1.70603 95.7252 2.1745 96.0988 2.75077C96.8765 3.96808 96.8765 6.02886 96.8765 7.51617V17.1485C96.8561 17.2847 96.7857 17.4087 96.6792 17.4961C96.5726 17.5835 96.4372 17.6282 96.2996 17.6215H93.3261C93.1977 17.6094 93.0763 17.5572 92.9793 17.4724C92.8821 17.3874 92.8141 17.2741 92.7849 17.1485V8.83501C92.7849 7.14578 92.988 4.71232 90.9261 4.71232C90.5527 4.72974 90.1921 4.85347 89.8867 5.06893C89.5814 5.28437 89.3438 5.58259 89.2023 5.92846C88.8408 6.85294 88.6794 7.84362 88.7292 8.83501V17.0816C88.7105 17.23 88.6385 17.3668 88.5267 17.4662C88.4149 17.5658 88.2708 17.6213 88.1211 17.6227V17.6158ZM48.4115 10.3154C48.5219 11.4037 48.3349 12.5016 47.8703 13.4919C47.6818 13.8833 47.3903 14.216 47.0271 14.4542C46.6638 14.6925 46.2425 14.8274 45.8084 14.8442C44.6546 14.8442 43.983 13.965 43.983 12.6808C43.983 10.1423 46.2469 9.67273 48.4103 9.67273L48.4115 10.3154ZM51.4196 17.5846C51.3232 17.6687 51.203 17.7206 51.0757 17.7328C50.9484 17.745 50.8205 17.717 50.7099 17.6527C50.0216 17.0956 49.4378 16.4205 48.9861 15.6589C48.3968 16.3793 47.646 16.9506 46.7946 17.3265C45.9432 17.7024 45.0151 17.8723 44.0857 17.8223C43.4759 17.8581 42.8655 17.7615 42.2966 17.5391C41.7277 17.3166 41.2137 16.9736 40.7898 16.5336C40.3659 16.0936 40.0424 15.5672 39.8413 14.9904C39.6403 14.4135 39.5664 13.8 39.6249 13.1919C39.5899 12.1526 39.8761 11.1276 40.4445 10.2568C41.0129 9.38587 41.8359 8.71134 42.8015 8.32504C44.6154 7.72338 46.5027 7.37091 48.4115 7.27732V6.90579C48.5126 6.16359 48.3828 5.40828 48.0399 4.74232C47.8456 4.49039 47.5941 4.2884 47.3061 4.15314C47.0182 4.0179 46.7021 3.95327 46.3842 3.96462C45.8341 3.91662 45.2856 4.07259 44.843 4.4028C44.4005 4.73302 44.0948 5.21442 43.9842 5.7554C43.9161 6.0254 43.7534 6.29654 43.4776 6.29654L40.6046 5.99195C40.5352 5.9822 40.4685 5.95853 40.4084 5.92237C40.3484 5.88621 40.2964 5.8383 40.2553 5.78152C40.2142 5.72474 40.185 5.66023 40.1696 5.5919C40.154 5.52357 40.1525 5.45281 40.1649 5.38386C40.8411 1.86924 43.9842 0.821544 46.8226 0.821544C48.4538 0.751791 50.0543 1.28076 51.3226 2.30886C52.7753 3.66117 52.6403 5.48538 52.6403 7.44577V12.0762C52.6593 13.1051 53.0564 14.0909 53.7561 14.8454C53.9592 15.1154 53.9926 15.4535 53.7561 15.6231C53.1088 16.1331 52.0253 17.0792 51.4196 17.5846ZM9.37802 10.3154C9.48849 11.4037 9.30144 12.5016 8.83686 13.4919C8.64838 13.8833 8.35686 14.216 7.99359 14.4542C7.63033 14.6925 7.20905 14.8274 6.77496 14.8442C5.62111 14.8442 4.94957 13.965 4.94957 12.6808C4.94957 10.1423 7.21341 9.67273 9.37687 9.67273L9.37802 10.3154ZM12.3526 17.5846C12.2563 17.6687 12.1361 17.7206 12.0088 17.7328C11.8815 17.745 11.7536 17.717 11.643 17.6527C10.9547 17.0956 10.371 16.4205 9.91918 15.6589C9.32991 16.3793 8.5791 16.9506 7.72767 17.3265C6.87623 17.7024 5.94817 17.8723 5.01879 17.8223C4.40896 17.8581 3.79861 17.7615 3.22968 17.5391C2.66075 17.3166 2.14671 16.9736 1.72288 16.5336C1.29906 16.0936 0.975488 15.5672 0.774412 14.9904C0.573337 14.4135 0.499525 13.8 0.558031 13.1919C0.522996 12.1526 0.809158 11.1276 1.37757 10.2568C1.94598 9.38587 2.769 8.71134 3.73456 8.32504C5.54849 7.72338 7.43574 7.37091 9.34456 7.27732V6.90579C9.44558 6.16359 9.31589 5.40828 8.97303 4.74232C8.77875 4.49039 8.52718 4.2884 8.23922 4.15314C7.95126 4.0179 7.63518 3.95327 7.31724 3.96462C6.76717 3.91662 6.21865 4.07259 5.7761 4.4028C5.33354 4.73302 5.02787 5.21442 4.91727 5.7554C4.84919 6.0254 4.68072 6.29654 4.41072 6.29654L1.53765 5.99195C1.46826 5.9822 1.40155 5.95853 1.34153 5.92237C1.28151 5.88621 1.22941 5.8383 1.18835 5.78152C1.1473 5.72474 1.11813 5.66023 1.10261 5.5919C1.08709 5.52357 1.08553 5.45281 1.09802 5.38386C1.77417 1.86924 4.91725 0.821544 7.75572 0.821544C9.38692 0.751791 10.9874 1.28076 12.2557 2.30886C13.7084 3.66117 13.5734 5.48538 13.5734 7.44577V12.0762C13.5924 13.1049 13.9896 14.0908 14.6892 14.8454C14.8923 15.1154 14.9257 15.4535 14.6892 15.6231C14.0465 16.1296 12.9653 17.0758 12.3573 17.5846H12.3526Z" fill="#05073C"/>
</g>
</g>
<defs>
<clipPath id="clip0_2103_7230">
<rect width="96.9231" height="30" fill="white" transform="translate(0.538574 0.439941)"/>
</clipPath>
</defs>
</svg>
