<svg width="80" height="81" viewBox="0 0 80 81" fill="none" xmlns="http://www.w3.org/2000/svg">
<rect y="0.130005" width="80" height="80" rx="40" fill="#FEF7F4"/>
<g clip-path="url(#clip0_2103_6990)">
<g clip-path="url(#clip1_2103_6990)">
<path d="M54.375 30.9801H53.75V29.7301C53.75 26.2839 50.9463 23.4801 47.5 23.4801H32.5C29.0538 23.4801 26.25 26.2839 26.25 29.7301V30.9801H25.625C23.9013 30.9801 22.5 32.3826 22.5 34.1051V37.2301C22.5 37.9201 23.0587 38.4801 23.75 38.4801C24.4413 38.4801 25 37.9201 25 37.2301V34.1051C25 33.7601 25.2812 33.4801 25.625 33.4801H26.25V45.9801C26.25 48.0138 27.2413 49.8063 28.75 50.9476V53.4801C28.75 54.8588 29.8713 55.9801 31.25 55.9801H33.75C35.1287 55.9801 36.25 54.8588 36.25 53.4801V52.2301H43.75V53.4801C43.75 54.8588 44.8713 55.9801 46.25 55.9801H48.75C50.1287 55.9801 51.25 54.8588 51.25 53.4801V50.9476C52.7588 49.8051 53.75 48.0126 53.75 45.9801V33.4801H54.375C54.7188 33.4801 55 33.7601 55 34.1051V37.2301C55 37.9201 55.5588 38.4801 56.25 38.4801C56.9412 38.4801 57.5 37.9201 57.5 37.2301V34.1051C57.5 32.3826 56.0988 30.9801 54.375 30.9801ZM28.75 30.9801H51.25V40.1863C50.1187 40.6988 48.8813 40.9801 47.6388 40.9801H32.3612C31.12 40.9801 29.8812 40.6988 28.75 40.1863V30.9801ZM32.5 25.9801H47.5C49.1275 25.9801 50.5025 27.0289 51.02 28.4801H28.98C29.4975 27.0289 30.8725 25.9801 32.5 25.9801ZM33.75 53.4801H31.25V52.1038C31.6538 52.1863 32.0725 52.2301 32.5 52.2301H33.75V53.4801ZM48.75 53.4801H46.25V52.2301H47.5C47.9275 52.2301 48.3463 52.1863 48.75 52.1038V53.4801ZM47.5 49.7301H32.5C30.4325 49.7301 28.75 48.0476 28.75 45.9801V42.8726C29.9125 43.2651 31.1362 43.4801 32.3612 43.4801H47.64C48.865 43.4801 50.0887 43.2651 51.2512 42.8726V45.9801C51.2512 48.0476 49.5675 49.7301 47.5 49.7301Z" fill="#EB662B"/>
<path d="M32.5 47.2301C33.1904 47.2301 33.75 46.6705 33.75 45.9801C33.75 45.2897 33.1904 44.7301 32.5 44.7301C31.8096 44.7301 31.25 45.2897 31.25 45.9801C31.25 46.6705 31.8096 47.2301 32.5 47.2301Z" fill="#EB662B"/>
<path d="M47.5 47.2301C48.1904 47.2301 48.75 46.6705 48.75 45.9801C48.75 45.2897 48.1904 44.7301 47.5 44.7301C46.8096 44.7301 46.25 45.2897 46.25 45.9801C46.25 46.6705 46.8096 47.2301 47.5 47.2301Z" fill="#EB662B"/>
</g>
</g>
<defs>
<clipPath id="clip0_2103_6990">
<rect width="40" height="41" fill="white" transform="translate(20 19.63)"/>
</clipPath>
<clipPath id="clip1_2103_6990">
<rect width="40" height="41" fill="white" transform="translate(20 19.63)"/>
</clipPath>
</defs>
</svg>
