<svg width="60" height="43" viewBox="0 0 60 43" fill="none" xmlns="http://www.w3.org/2000/svg">
<path d="M14.837 43.0051C11.0326 43.0051 7.6087 41.4834 4.56522 38.4399C1.52174 35.2877 0 30.6682 0 24.5812C0 17.6247 1.84783 11.9725 5.54348 7.62472C9.34783 3.16819 14.7283 0.939941 21.6848 0.939941C24.1848 0.939941 26.1413 1.10298 27.5543 1.42906V8.92906C26.0326 8.71167 24.0761 8.60298 21.6848 8.60298C17.9891 8.60298 15 9.85298 12.7174 12.3529C10.5435 14.5268 9.29348 17.4073 8.96739 20.9942C10.3804 19.2551 12.663 18.3855 15.8152 18.3855C19.0761 18.3855 21.8478 19.5269 24.1304 21.8095C26.413 23.9834 27.5543 26.8638 27.5543 30.4508C27.5543 34.1464 26.3587 37.1899 23.9674 39.5812C21.5761 41.8638 18.5326 43.0051 14.837 43.0051ZM47.2826 43.0051C43.4783 43.0051 40.0543 41.4834 37.0109 38.4399C33.9674 35.2877 32.4456 30.6682 32.4456 24.5812C32.4456 17.6247 34.2935 11.9725 37.9891 7.62472C41.7935 3.16819 47.1739 0.939941 54.1304 0.939941C56.6304 0.939941 58.587 1.10298 60 1.42906V8.92906C58.4783 8.71167 56.5217 8.60298 54.1304 8.60298C50.4348 8.60298 47.4456 9.85298 45.163 12.3529C42.9891 14.5268 41.7391 17.4073 41.413 20.9942C42.8261 19.2551 45.1087 18.3855 48.2609 18.3855C51.5217 18.3855 54.2935 19.5269 56.5761 21.8095C58.8587 23.9834 60 26.8638 60 30.4508C60 34.1464 58.8043 37.1899 56.413 39.5812C54.0217 41.8638 50.9783 43.0051 47.2826 43.0051Z" fill="#EB662B"/>
</svg>
