<svg width="80" height="81" viewBox="0 0 80 81" fill="none" xmlns="http://www.w3.org/2000/svg">
<rect y="0.130005" width="80" height="80" rx="40" fill="#FEF7F4"/>
<g clip-path="url(#clip0_2103_6967)">
<g clip-path="url(#clip1_2103_6967)">
<path d="M58.3337 55.0752H57.917V51.3252C57.9161 50.5519 57.6085 49.8106 57.0617 49.2638C56.515 48.717 55.7736 48.4094 55.0003 48.4085H54.5837V39.2419H55.0003C55.7736 39.241 56.515 38.9334 57.0617 38.3866C57.6085 37.8398 57.9161 37.0985 57.917 36.3252V30.7869C57.8988 30.2085 57.7168 29.6471 57.3923 29.168C57.0678 28.6889 56.614 28.3117 56.0837 28.0802L41.0837 22.0802C40.3844 21.8227 39.6163 21.8227 38.917 22.0802L23.917 28.0802C23.3865 28.3115 22.9326 28.6887 22.6081 29.1679C22.2835 29.647 22.1017 30.2084 22.0837 30.7869V36.3252C22.0845 37.0985 22.3921 37.8398 22.9389 38.3866C23.4857 38.9334 24.227 39.241 25.0003 39.2419H25.417V48.4085H25.0003C24.227 48.4094 23.4857 48.717 22.9389 49.2638C22.3921 49.8106 22.0845 50.5519 22.0837 51.3252V55.0752H21.667C21.3355 55.0752 21.0175 55.2069 20.7831 55.4413C20.5487 55.6757 20.417 55.9937 20.417 56.3252C20.417 56.6567 20.5487 56.9747 20.7831 57.2091C21.0175 57.4435 21.3355 57.5752 21.667 57.5752H58.3337C58.6652 57.5752 58.9831 57.4435 59.2175 57.2091C59.452 56.9747 59.5837 56.6567 59.5837 56.3252C59.5837 55.9937 59.452 55.6757 59.2175 55.4413C58.9831 55.2069 58.6652 55.0752 58.3337 55.0752ZM25.0003 36.7419C24.8902 36.7406 24.785 36.6963 24.7071 36.6184C24.6293 36.5405 24.585 36.4353 24.5837 36.3252V30.7869C24.5994 30.7078 24.6307 30.6327 24.6756 30.5658C24.7205 30.4988 24.7782 30.4414 24.8453 30.3969L39.8337 24.3969C39.8885 24.3856 39.9444 24.3806 40.0003 24.3819C40.0563 24.3804 40.1122 24.3854 40.167 24.3969L55.167 30.3969C55.3009 30.4868 55.3942 30.6256 55.427 30.7835V36.3252C55.4257 36.4353 55.3814 36.5405 55.3035 36.6184C55.2257 36.6963 55.1204 36.7406 55.0103 36.7419H25.0003ZM52.0837 39.2419V48.4085H47.917V39.2419H52.0837ZM45.417 39.2419V48.4085H41.2503V39.2419H45.417ZM38.7503 39.2419V48.4085H34.5837V39.2419H38.7503ZM32.0837 39.2419V48.4085H27.917V39.2419H32.0837ZM55.417 55.0752H24.5837V51.3252C24.5837 51.2147 24.6276 51.1087 24.7057 51.0306C24.7838 50.9524 24.8898 50.9085 25.0003 50.9085H55.0003C55.1108 50.9085 55.2168 50.9524 55.295 51.0306C55.3731 51.1087 55.417 51.2147 55.417 51.3252V55.0752ZM40.0003 27.5752C39.2586 27.5752 38.5336 27.7951 37.9169 28.2072C37.3003 28.6193 36.8196 29.2049 36.5358 29.8901C36.252 30.5754 36.1777 31.3294 36.3224 32.0568C36.4671 32.7842 36.8242 33.4524 37.3487 33.9769C37.8731 34.5013 38.5413 34.8585 39.2687 35.0032C39.9962 35.1478 40.7502 35.0736 41.4354 34.7898C42.1206 34.5059 42.7063 34.0253 43.1183 33.4086C43.5304 32.7919 43.7503 32.0669 43.7503 31.3252C43.749 30.3311 43.3535 29.378 42.6505 28.675C41.9475 27.972 40.9945 27.5765 40.0003 27.5752ZM40.0003 32.5752C39.7531 32.5752 39.5114 32.5019 39.3059 32.3645C39.1003 32.2272 38.9401 32.032 38.8455 31.8036C38.7509 31.5752 38.7261 31.3238 38.7743 31.0813C38.8226 30.8389 38.9416 30.6161 39.1164 30.4413C39.2913 30.2665 39.514 30.1475 39.7565 30.0992C39.9989 30.051 40.2503 30.0757 40.4787 30.1704C40.7071 30.265 40.9023 30.4252 41.0397 30.6307C41.177 30.8363 41.2503 31.078 41.2503 31.3252C41.2494 31.6565 41.1175 31.9739 40.8832 32.2081C40.649 32.4423 40.3316 32.5743 40.0003 32.5752Z" fill="#EB662B"/>
</g>
</g>
<defs>
<clipPath id="clip0_2103_6967">
<rect width="40" height="41" fill="white" transform="translate(20 19.63)"/>
</clipPath>
<clipPath id="clip1_2103_6967">
<rect width="40" height="41" fill="white" transform="translate(20 19.63)"/>
</clipPath>
</defs>
</svg>
