<svg width="80" height="81" viewBox="0 0 80 81" fill="none" xmlns="http://www.w3.org/2000/svg">
<rect y="0.130005" width="80" height="80" rx="40" fill="#FEF7F4"/>
<g clip-path="url(#clip0_2103_6958)">
<g clip-path="url(#clip1_2103_6958)">
<path d="M58.3337 54.3035H54.2187V49.2302C55.2739 48.9612 56.2098 48.3491 56.8793 47.4902C57.5488 46.6313 57.9138 45.5742 57.917 44.4852V40.7019C57.917 39.3979 57.399 38.1473 56.4769 37.2253C55.5549 36.3032 54.3043 35.7852 53.0003 35.7852C51.6963 35.7852 50.4458 36.3032 49.5237 37.2253C48.6017 38.1473 48.0837 39.3979 48.0837 40.7019V44.4785C48.0869 45.5561 48.4446 46.6027 49.1015 47.4569C49.7584 48.311 50.6781 48.9254 51.7187 49.2052V54.3035H45.0837V28.9285C45.0837 24.8719 42.8753 22.6385 38.862 22.6385H28.4853C24.4603 22.6385 22.2437 24.8719 22.2437 28.9285V54.3035H21.667C21.3355 54.3035 21.0175 54.4352 20.7831 54.6697C20.5487 54.9041 20.417 55.222 20.417 55.5535C20.417 55.8851 20.5487 56.203 20.7831 56.4374C21.0175 56.6718 21.3355 56.8035 21.667 56.8035H52.872C52.9053 56.8035 52.9353 56.8219 52.9687 56.8219C53.002 56.8219 53.032 56.8052 53.0653 56.8035H58.3337C58.6652 56.8035 58.9831 56.6718 59.2175 56.4374C59.452 56.203 59.5837 55.8851 59.5837 55.5535C59.5837 55.222 59.452 54.9041 59.2175 54.6697C58.9831 54.4352 58.6652 54.3035 58.3337 54.3035ZM42.5837 54.3035H35.0003V49.3035C35.0003 48.972 34.8686 48.6541 34.6342 48.4197C34.3998 48.1852 34.0818 48.0535 33.7503 48.0535C33.4188 48.0535 33.1009 48.1852 32.8664 48.4197C32.632 48.6541 32.5003 48.972 32.5003 49.3035V54.3035H24.7487V28.9285C24.7487 26.2719 25.8687 25.1386 28.4903 25.1386H38.867C41.4753 25.1386 42.5887 26.2719 42.5887 28.9285L42.5837 54.3035ZM53.0003 46.8969C52.3595 46.8964 51.7451 46.6417 51.292 46.1886C50.8389 45.7354 50.5841 45.121 50.5837 44.4802V40.7019C50.5837 40.0609 50.8383 39.4462 51.2915 38.993C51.7447 38.5398 52.3594 38.2852 53.0003 38.2852C53.6413 38.2852 54.256 38.5398 54.7092 38.993C55.1624 39.4462 55.417 40.0609 55.417 40.7019V44.4785C55.417 45.1196 55.1624 45.7345 54.7093 46.188C54.2561 46.6415 53.6414 46.8964 53.0003 46.8969ZM39.167 32.6385C39.167 32.9701 39.0353 33.288 38.8009 33.5224C38.5665 33.7568 38.2485 33.8885 37.917 33.8885H29.667C29.4948 33.9026 29.3216 33.8809 29.1582 33.8247C28.9949 33.7685 28.845 33.679 28.7179 33.5619C28.5909 33.4449 28.4895 33.3028 28.4202 33.1445C28.3508 32.9863 28.315 32.8155 28.315 32.6427C28.315 32.47 28.3508 32.2991 28.4202 32.1409C28.4895 31.9827 28.5909 31.8405 28.7179 31.7235C28.845 31.6064 28.9949 31.517 29.1582 31.4607C29.3216 31.4045 29.4948 31.3828 29.667 31.3969H37.917C38.2471 31.3969 38.5638 31.5274 38.7979 31.76C39.0321 31.9927 39.1648 32.3085 39.167 32.6385ZM39.167 38.8869C39.167 39.2184 39.0353 39.5363 38.8009 39.7708C38.5665 40.0052 38.2485 40.1369 37.917 40.1369H29.667C29.3355 40.1369 29.0175 40.0052 28.7831 39.7708C28.5487 39.5363 28.417 39.2184 28.417 38.8869C28.417 38.5554 28.5487 38.2374 28.7831 38.003C29.0175 37.7686 29.3355 37.6369 29.667 37.6369H37.917C38.2485 37.6369 38.5665 37.7686 38.8009 38.003C39.0353 38.2374 39.167 38.5554 39.167 38.8869Z" fill="#EB662B"/>
</g>
</g>
<defs>
<clipPath id="clip0_2103_6958">
<rect width="40" height="41" fill="white" transform="translate(20 19.63)"/>
</clipPath>
<clipPath id="clip1_2103_6958">
<rect width="40" height="41" fill="white" transform="translate(20 19.63)"/>
</clipPath>
</defs>
</svg>
