<svg width="60" height="61" viewBox="0 0 60 61" fill="none" xmlns="http://www.w3.org/2000/svg">
<g clip-path="url(#clip0_2103_6880)">
<g clip-path="url(#clip1_2103_6880)">
<path fill-rule="evenodd" clip-rule="evenodd" d="M28.4148 55.462C28.7575 56.0076 29.3575 56.3403 30.0027 56.3403C30.648 56.3403 31.248 56.0076 31.5907 55.462C36.6657 47.3703 52.3598 22.346 55.962 16.6023C56.4015 15.9008 56.3293 14.9938 55.7832 14.3702C53.7176 12.0127 48.7626 6.35456 47.0925 4.4476C46.7363 4.04264 46.2221 3.80878 45.6821 3.80878C41.0552 3.80878 18.9503 3.80878 14.3234 3.80878C13.7834 3.80878 13.2692 4.04264 12.9129 4.4476C11.2429 6.35456 6.28782 12.0127 4.22229 14.3702C3.67622 14.9938 3.60398 15.9008 4.04354 16.6023C7.64564 22.346 23.3397 47.3703 28.4148 55.462Z" fill="#FDF0EA"/>
<path fill-rule="evenodd" clip-rule="evenodd" d="M3.83838 15.4374H56.192C56.1157 15.1874 55.987 14.951 55.8068 14.7447C53.7408 12.3873 48.782 6.72812 47.1113 4.82091C46.7561 4.41446 46.2408 4.18186 45.7006 4.18186C41.0732 4.18186 18.9572 4.18186 14.3299 4.18186C13.7896 4.18186 13.2744 4.41446 12.9192 4.82091C11.2483 6.72812 6.28959 12.3873 4.22357 14.7447C4.04348 14.951 3.91466 15.1874 3.83838 15.4374Z" fill="white"/>
<path fill-rule="evenodd" clip-rule="evenodd" d="M22.5112 15.4374L30.015 4.18186H14.3296C14.1508 4.18186 13.9745 4.20687 13.8057 4.2569L22.5112 15.4374ZM30.015 4.18186L37.5187 15.4374L46.2243 4.2569C46.0555 4.20687 45.8791 4.18186 45.7003 4.18186H30.015Z" fill="#FDF0EA"/>
<path fill-rule="evenodd" clip-rule="evenodd" d="M37.5187 15.4374H22.5112L30.015 4.18186L37.5187 15.4374Z" fill="white"/>
<path fill-rule="evenodd" clip-rule="evenodd" d="M30.015 56.7231L22.5112 15.4374H37.5187L30.015 56.7231Z" fill="white"/>
<path fill-rule="evenodd" clip-rule="evenodd" d="M15.0047 49.2418L16.4855 51.5138L18.7573 52.9944L16.4855 54.4739L15.0047 56.7458L13.5253 54.4739L11.2534 52.9944L13.5253 51.5138L15.0047 49.2418Z" fill="#FDF0EA"/>
<path fill-rule="evenodd" clip-rule="evenodd" d="M7.50474 34.2418L8.98551 36.5138L11.2574 37.9944L8.98551 39.4739L7.50474 41.7458L6.02527 39.4739L3.75342 37.9944L6.02527 36.5138L7.50474 34.2418Z" fill="#FDF0EA"/>
<path fill-rule="evenodd" clip-rule="evenodd" d="M51.2542 40.4913L52.735 42.7631L55.0069 44.2439L52.735 45.7234L51.2542 47.9952L49.7748 45.7234L47.5029 44.2439L49.7748 42.7631L51.2542 40.4913Z" fill="#FDF0EA"/>
<path d="M23.1339 48.3944C23.8247 48.3944 24.3846 47.8344 24.3846 47.1437C24.3846 46.453 23.8247 45.8931 23.1339 45.8931C22.4432 45.8931 21.8833 46.453 21.8833 47.1437C21.8833 47.8344 22.4432 48.3944 23.1339 48.3944Z" fill="#EB662B"/>
<path fill-rule="evenodd" clip-rule="evenodd" d="M5.33888 16.6881H21.4757L28.513 53.6303L26.3168 50.1298C25.9505 49.5446 25.1776 49.3683 24.5935 49.7346C24.0082 50.1011 23.8319 50.8739 24.1984 51.458C24.1984 51.458 26.552 55.2111 27.3661 56.5092C27.9377 57.421 28.9381 57.9737 30.015 57.9737C31.0918 57.9737 32.0922 57.421 32.6638 56.5092L57.0448 17.6423C57.7788 16.473 57.6575 14.9597 56.747 13.9205C54.681 11.563 49.7236 5.90397 48.0527 3.99677C47.4587 3.32018 46.602 2.93126 45.7003 2.93126H14.3297C13.4279 2.93126 12.5712 3.32018 11.9772 3.99677C10.3064 5.90397 5.34889 11.563 3.28285 13.9205C2.3724 14.9597 2.25109 16.473 2.9852 17.6423L20.0624 44.866C20.4301 45.4512 21.2018 45.6275 21.7871 45.2612C22.3711 44.8947 22.5487 44.1219 22.1822 43.5378L5.33888 16.6881ZM53.6555 14.1869L46.4657 5.98152L40.0775 14.1869H48.7744C49.4647 14.1869 50.025 14.7472 50.025 15.4376C50.025 16.1278 49.4647 16.6881 48.7744 16.6881H38.5542L31.5169 53.6303L54.6911 16.6881H52.5262C51.8359 16.6881 51.2756 16.1278 51.2756 15.4376C51.2756 14.7472 51.8359 14.1869 52.5262 14.1869H53.6555ZM36.0079 16.6881H24.022L30.015 48.1488L36.0079 16.6881ZM6.3744 14.1869H19.9524L13.5642 5.98152L6.3744 14.1869ZM24.8486 14.1869H35.1812L30.015 6.43677L24.8486 14.1869ZM43.7231 5.4325H32.3524L37.5976 13.3001L43.7231 5.4325ZM27.6775 5.4325H16.3069L22.4324 13.3001L27.6775 5.4325Z" fill="#EB662B"/>
<path fill-rule="evenodd" clip-rule="evenodd" d="M16.0527 48.5588C15.8224 48.2046 15.4288 47.9914 15.005 47.9914C14.5825 47.9914 14.189 48.2046 13.9573 48.5588L12.6213 50.6094L10.5706 51.9468C10.2165 52.1771 10.002 52.5707 10.002 52.9946C10.002 53.4171 10.2165 53.8106 10.5706 54.0423L12.6213 55.3782L13.9573 57.429C14.189 57.783 14.5825 57.9976 15.005 57.9976C15.4288 57.9976 15.8224 57.783 16.0527 57.429L17.3901 55.3782L19.4408 54.0423C19.7949 53.8106 20.008 53.4171 20.008 52.9946C20.008 52.5707 19.7949 52.1771 19.4408 51.9468L17.3901 50.6094L16.0527 48.5588ZM15.005 51.5321L15.4381 52.1969C15.5329 52.3416 15.6579 52.4667 15.8026 52.5615L16.4674 52.9946L15.8026 53.4262C15.6579 53.521 15.5329 53.646 15.4381 53.7922L15.005 54.4556L14.5732 53.7922C14.4786 53.646 14.3535 53.521 14.2074 53.4262L13.544 52.9946L14.2074 52.5615C14.3535 52.4667 14.4786 52.3416 14.5732 52.1969L15.005 51.5321Z" fill="#EB662B"/>
<path fill-rule="evenodd" clip-rule="evenodd" d="M8.55275 33.5588C8.32241 33.2046 7.92886 32.9914 7.50502 32.9914C7.08251 32.9914 6.68895 33.2046 6.45729 33.5588L5.12129 35.6094L3.07057 36.9468C2.7165 37.1771 2.50195 37.5707 2.50195 37.9946C2.50195 38.4171 2.7165 38.8106 3.07057 39.0423L5.12129 40.3782L6.45729 42.429C6.68895 42.783 7.08251 42.9976 7.50502 42.9976C7.92886 42.9976 8.32241 42.783 8.55275 42.429L9.89006 40.3782L11.9408 39.0423C12.2949 38.8106 12.508 38.4171 12.508 37.9946C12.508 37.5707 12.2949 37.1771 11.9408 36.9468L9.89006 35.6094L8.55275 33.5588ZM7.50502 36.5321L7.93806 37.1969C8.03284 37.3416 8.15788 37.4667 8.30267 37.5615L8.96737 37.9946L8.30267 38.4262C8.15788 38.521 8.03284 38.646 7.93806 38.7922L7.50502 39.4556L7.07329 38.7922C6.97852 38.646 6.85348 38.521 6.70738 38.4262L6.04398 37.9946L6.70738 37.5615C6.85348 37.4667 6.97852 37.3416 7.07329 37.1969L7.50502 36.5321Z" fill="#EB662B"/>
<path fill-rule="evenodd" clip-rule="evenodd" d="M52.3023 39.8081C52.0719 39.454 51.6783 39.2408 51.2545 39.2408C50.832 39.2408 50.4385 39.454 50.2068 39.8081L48.8708 41.8588L46.8201 43.1961C46.466 43.4265 46.2515 43.8201 46.2515 44.2439C46.2515 44.6664 46.466 45.0599 46.8201 45.2916L48.8708 46.6276L50.2068 48.6783C50.4385 49.0324 50.832 49.247 51.2545 49.247C51.6783 49.247 52.0719 49.0324 52.3023 48.6783L53.6396 46.6276L55.6903 45.2916C56.0444 45.0599 56.2577 44.6664 56.2577 44.2439C56.2577 43.8201 56.0444 43.4265 55.6903 43.1961L53.6396 41.8588L52.3023 39.8081ZM51.2545 42.7815L51.6876 43.4462C51.7824 43.591 51.9074 43.716 52.0523 43.8108L52.7169 44.2439L52.0523 44.6756C51.9074 44.7704 51.7824 44.8954 51.6876 45.0416L51.2545 45.7049L50.8229 45.0416C50.7281 44.8954 50.603 44.7704 50.4569 44.6756L49.7935 44.2439L50.4569 43.8108C50.603 43.716 50.7281 43.591 50.8229 43.4462L51.2545 42.7815Z" fill="#EB662B"/>
</g>
</g>
<defs>
<clipPath id="clip0_2103_6880">
<rect width="60" height="60" fill="white" transform="translate(0 0.25)"/>
</clipPath>
<clipPath id="clip1_2103_6880">
<rect width="60" height="60" fill="white" transform="translate(0 0.25)"/>
</clipPath>
</defs>
</svg>
