<svg width="190" height="31" viewBox="0 0 190 31" fill="none" xmlns="http://www.w3.org/2000/svg">
<g clip-path="url(#clip0_2103_7247)">
<g clip-path="url(#clip1_2103_7247)">
<mask id="mask0_2103_7247" style="mask-type:luminance" maskUnits="userSpaceOnUse" x="45" y="5" width="100" height="20">
<path d="M144.603 5.46094H45V24.9224H144.603V5.46094Z" fill="white"/>
</mask>
<g mask="url(#mask0_2103_7247)">
<path fill-rule="evenodd" clip-rule="evenodd" d="M48.0333 7.29284C48.7778 6.64598 49.643 6.15289 50.5789 5.84198C51.5149 5.53107 52.5031 5.40851 53.4867 5.48135C54.4702 5.55419 55.4296 5.82101 56.3096 6.2664C57.1895 6.7118 57.9726 7.32698 58.6137 8.07645C59.9922 9.4705 60.7973 11.3311 60.8699 13.2903C60.9424 15.2495 60.2771 17.1646 59.0055 18.6568L53.1276 24.5346C51.9522 23.751 49.9932 22.1838 50.7768 20.6158C52.344 18.6568 54.3014 17.0912 55.871 15.1297C57.0464 13.5625 56.2628 10.4273 53.912 10.0355C53.3845 9.85107 52.8184 9.80521 52.2681 9.90227C51.7178 9.99934 51.2016 10.2361 50.769 10.5898C50.3364 10.9435 50.0018 11.4024 49.7974 11.9225C49.5929 12.4426 49.5254 13.0064 49.6013 13.56C49.6013 15.5191 51.1686 16.6945 52.344 17.8707C51.1686 19.0461 49.6013 19.8297 49.6013 21.3953C48.4259 19.8281 46.4669 18.6527 45.6825 16.6928C44.9661 15.0889 44.8084 13.291 45.2345 11.5869C45.6607 9.88269 46.6462 8.37071 48.0333 7.29284Z" fill="#05073C"/>
<path fill-rule="evenodd" clip-rule="evenodd" d="M73.1118 7.29307C73.5036 6.11766 74.679 6.50947 75.4626 6.50947V21.0037H73.1118V19.8316C72.1684 20.5923 70.993 21.0071 69.7811 21.0071C68.5692 21.0071 67.3938 20.5923 66.4503 19.8316C65.3651 18.8408 64.7151 17.4614 64.6417 15.9938C64.5684 14.5261 65.0775 13.0889 66.0585 11.9947C66.9407 11.0346 68.1405 10.4263 69.4363 10.2823C70.7321 10.1382 72.0362 10.4682 73.1077 11.2111L73.1118 7.29307ZM69.5872 12.3873C67.6282 12.7791 66.0626 15.5218 67.6282 17.4816C67.9209 17.9086 68.3208 18.2511 68.7877 18.4746C69.2547 18.6982 69.7722 18.795 70.2884 18.7553C70.8045 18.7156 71.3011 18.5409 71.7284 18.2485C72.1557 17.9561 72.4984 17.5565 72.7225 17.0898C73.8954 15.13 71.9356 12.3865 69.5848 12.3865L69.5872 12.3873Z" fill="#05073C"/>
<path fill-rule="evenodd" clip-rule="evenodd" d="M77.4219 10.4272H79.7727V11.2108C80.5563 10.0354 82.1235 10.0354 83.6915 10.4272C83.2997 11.2108 82.9079 11.6026 82.9079 12.3862C81.3407 11.9944 79.7735 12.778 79.7735 13.9534V19.8313C79.3809 21.0108 78.2055 21.0108 77.4219 21.0108V10.4272Z" fill="#05073C"/>
<path fill-rule="evenodd" clip-rule="evenodd" d="M87.2174 10.428C91.1363 8.86083 95.0543 12.7789 94.2666 16.6977C93.4789 20.6166 87.997 22.5756 85.2502 19.8322C82.1158 17.0895 83.2912 11.2117 87.2093 10.428H87.2174ZM88.3929 12.3871C87.7348 12.5626 87.1348 12.9086 86.6533 13.3901C86.1717 13.8717 85.8257 14.4717 85.6502 15.1297C85.5698 15.5768 85.592 16.0363 85.7151 16.4735C85.8382 16.9107 86.059 17.3143 86.3609 17.6537C86.6627 17.9932 87.0378 18.2596 87.4576 18.4329C87.8775 18.6063 88.3312 18.6819 88.7847 18.6543C90.3519 18.6543 91.9191 17.4789 91.9191 15.9117C91.9191 13.9543 89.9609 11.9953 88.3945 12.3871H88.3929Z" fill="#05073C"/>
<path fill-rule="evenodd" clip-rule="evenodd" d="M95.8389 10.4273H98.1897V11.2109C99.2612 10.468 100.565 10.138 101.861 10.2821C103.157 10.4261 104.357 11.0344 105.239 11.9945C105.723 12.498 106.099 13.0955 106.344 13.7501C106.588 14.4046 106.696 15.1024 106.66 15.8001C106.624 16.4979 106.445 17.1808 106.135 17.8068C105.824 18.4328 105.389 18.9885 104.855 19.4396C103.288 21.3986 100.153 21.3986 98.1938 20.2232V23.7478C97.802 24.9232 96.6266 24.9232 95.843 24.9232V10.4273H95.8389ZM100.933 12.3863C98.5823 12.7781 97.4085 15.5208 98.5823 17.0888C99.7577 19.0478 102.893 19.0478 103.677 17.0888C105.243 15.1289 103.284 12.3863 100.933 12.3863Z" fill="#05073C"/>
<path fill-rule="evenodd" clip-rule="evenodd" d="M110.729 10.8198C111.721 10.2637 112.864 10.0397 113.993 10.1807C115.121 10.3218 116.174 10.8203 116.999 11.6034C116.607 11.9952 116.215 12.7788 115.432 13.1706C115.066 12.8747 114.637 12.6678 114.178 12.5661C113.719 12.4645 113.243 12.4709 112.787 12.5849C112.331 12.6989 111.908 12.9173 111.55 13.223C111.193 13.5286 110.912 13.9131 110.729 14.3461C110.559 14.8101 110.498 15.307 110.551 15.7984C110.604 16.2899 110.769 16.7624 111.035 17.1794C111.3 17.5965 111.658 17.9467 112.081 18.2029C112.503 18.4591 112.979 18.6144 113.472 18.6567C114.255 18.6567 115.039 18.2649 115.823 18.2649C116.522 18.5731 117.082 19.1322 117.39 19.8321C114.647 22.1829 109.945 21.3993 108.769 17.8731C107.202 15.5215 108.377 12.3854 110.729 10.8198Z" fill="#05073C"/>
<path fill-rule="evenodd" clip-rule="evenodd" d="M117.391 17.4807C116.217 13.9545 118.958 10.0356 122.485 10.0356C123.896 10.0972 125.244 10.634 126.311 11.5589C127.379 12.4837 128.102 13.7423 128.363 15.1299V21.0077C127.188 21.0077 126.404 21.0077 125.62 20.2241C122.878 22.1832 118.571 20.6159 117.392 17.4815L117.391 17.4807ZM122.485 12.3865C121.945 12.488 121.438 12.7171 121.005 13.0548C120.572 13.3923 120.226 13.8286 119.996 14.3273C119.766 14.8259 119.658 15.3723 119.682 15.9208C119.706 16.4694 119.861 17.0042 120.134 17.4807C121.701 19.4397 124.837 19.0479 125.62 17.0889C125.821 16.5723 125.894 16.0148 125.834 15.4637C125.774 14.9127 125.582 14.3843 125.274 13.9231C124.967 13.4618 124.553 13.0815 124.068 12.814C123.582 12.5466 123.039 12.3999 122.485 12.3865Z" fill="#05073C"/>
<path fill-rule="evenodd" clip-rule="evenodd" d="M129.93 10.4285H132.281V11.2121C133.456 9.64486 136.2 10.0367 137.767 11.6039C139.726 9.25306 143.645 10.0367 144.429 12.7793C144.82 15.1301 144.429 17.8736 144.429 20.2244C144.429 21.008 143.253 21.008 142.078 21.008C142.078 18.6572 142.47 16.3055 142.078 13.9588C142.001 13.5474 141.783 13.1758 141.461 12.9084C141.139 12.6409 140.734 12.4945 140.315 12.4945C139.897 12.4945 139.492 12.6409 139.17 12.9084C138.848 13.1758 138.63 13.5474 138.553 13.9588V21.008H136.202C136.267 18.5199 136.136 16.0304 135.811 13.5629C135.419 11.9957 132.676 12.3875 132.676 13.9547C132.351 16.2895 132.22 18.6473 132.284 21.0039H129.93V10.4285Z" fill="#05073C"/>
</g>
</g>
</g>
<defs>
<clipPath id="clip0_2103_7247">
<rect width="100" height="30" fill="white" transform="translate(45 0.439941)"/>
</clipPath>
<clipPath id="clip1_2103_7247">
<rect width="100" height="20.4918" fill="white" transform="translate(45 5.19385)"/>
</clipPath>
</defs>
</svg>
