<svg width="60" height="61" viewBox="0 0 60 61" fill="none" xmlns="http://www.w3.org/2000/svg">
<g clip-path="url(#clip0_2103_6865)">
<g clip-path="url(#clip1_2103_6865)">
<path fill-rule="evenodd" clip-rule="evenodd" d="M30.06 4.13684C21.0805 4.13684 13.8018 11.4155 13.8018 20.395C13.8106 26.0728 16.7758 31.2929 21.5495 34.2231C22.3148 34.6934 23.119 35.7189 23.2953 36.5993L23.7368 38.8092C23.9219 39.7334 24.7411 40.405 25.6828 40.405H34.4372C35.3789 40.405 36.198 39.7334 36.3831 38.8092L36.8246 36.5993C37.0009 35.7189 37.8051 34.6934 38.5705 34.2244C43.3441 31.2929 46.3093 26.0728 46.3181 20.395C46.3181 11.4155 39.0395 4.13684 30.06 4.13684Z" fill="#FDF0EA"/>
<path fill-rule="evenodd" clip-rule="evenodd" d="M23.647 48.1964L36.4634 48.2614L35.3716 54.8122C35.194 55.8765 34.2648 56.6631 33.1867 56.6631H26.9336C25.8556 56.6631 24.9263 55.8765 24.7487 54.8122L23.647 48.1964Z" fill="white"/>
<path fill-rule="evenodd" clip-rule="evenodd" d="M23.1819 45.4075H36.9387C37.2701 45.4075 37.5891 45.5388 37.8229 45.7739C38.058 46.0078 38.1894 46.3267 38.1894 46.6581V47.9087C38.1894 48.5953 37.6253 49.1593 36.9387 49.1593H23.1819C22.8504 49.1593 22.5315 49.028 22.2977 48.7929C22.0625 48.559 21.9312 48.2401 21.9312 47.9087V46.6581C21.9312 45.9715 22.4953 45.4075 23.1819 45.4075Z" fill="#FDF0EA"/>
<path fill-rule="evenodd" clip-rule="evenodd" d="M30.0599 4.13684C26.9521 4.13684 24.4321 11.4155 24.4321 20.395C24.4346 26.0728 25.4613 31.2929 27.1146 34.2231C27.3785 34.6934 27.6574 35.7189 27.7187 36.5993L27.8713 38.8092C27.9351 39.7334 28.2189 40.405 28.5441 40.405H31.5756C31.9008 40.405 32.1847 39.7334 32.2485 38.8092L32.401 36.5993C32.4623 35.7189 32.7412 34.6934 33.0051 34.2244C34.6584 31.2929 35.6852 26.0728 35.6877 20.395C35.6877 11.4155 33.1677 4.13684 30.0599 4.13684Z" fill="white"/>
<path fill-rule="evenodd" clip-rule="evenodd" d="M11.4731 38.8593C10.7927 38.2627 9.91479 37.9038 8.95556 37.9038C6.79698 37.9038 5.04736 39.7235 5.04736 41.9683C5.04736 44.2132 6.79698 46.0329 8.95556 46.0329H14.427C16.1541 46.0329 17.5536 44.5771 17.5536 42.7812C17.5536 40.9853 16.1541 39.5296 14.427 39.5296C13.7592 39.5296 13.1389 39.7472 12.6311 40.1187L11.4731 38.8593Z" fill="#FDF0EA"/>
<path fill-rule="evenodd" clip-rule="evenodd" d="M51.8247 30.3812C52.3012 29.9635 52.9165 29.7122 53.5881 29.7122C55.0989 29.7122 56.3232 30.9866 56.3232 32.5573C56.3232 34.1281 55.0989 35.4025 53.5881 35.4025H49.7574C48.5493 35.4025 47.5688 34.3832 47.5688 33.1264C47.5688 31.8695 48.5493 30.8502 49.7574 30.8502C50.2252 30.8502 50.6591 31.0028 51.0143 31.2629L51.8247 30.3812Z" fill="white"/>
<path fill-rule="evenodd" clip-rule="evenodd" d="M22.7414 50.3712L23.5156 55.0185C23.7932 56.6819 25.2464 57.9137 26.9335 57.9137H33.1866C34.8737 57.9137 36.327 56.6819 36.6046 55.0185L37.3787 50.37C38.5443 50.1599 39.4398 49.1306 39.4398 47.9087V46.6581C39.4398 45.9953 39.1759 45.3587 38.7069 44.8897C38.2379 44.4207 37.6013 44.1569 36.9385 44.1569H36.3132V41.0528C36.966 40.5876 37.4438 39.8835 37.6089 39.0543L38.0516 36.8445C38.1679 36.2629 38.7194 35.6001 39.2247 35.2899C44.366 32.1334 47.5601 26.5118 47.5688 20.3975V20.395C47.5688 10.7251 39.7299 2.88623 30.0601 2.88623C20.3902 2.88623 12.5513 10.7251 12.5513 20.395V20.3962C12.5526 20.964 12.5801 21.5256 12.6351 22.0833C12.7027 22.7699 13.3142 23.2727 14.0021 23.2051C14.6887 23.1376 15.1914 22.5261 15.1239 21.8382C15.0776 21.3617 15.0538 20.8802 15.0526 20.3937C15.0526 13.5053 19.6936 7.70239 26.0193 5.93776C24.3435 8.94926 23.1816 14.2919 23.1816 20.395V20.3962C23.1854 26.3292 24.2985 31.7757 26.0243 34.8384C26.2307 35.2024 26.4233 36.0028 26.4708 36.6856L26.6234 38.8955C26.6296 38.9843 26.6384 39.0706 26.6471 39.1544H25.6829C25.334 39.1544 25.0313 38.9067 24.9638 38.5641L24.5223 36.3542C24.2859 35.1749 23.2292 33.7879 22.2037 33.1576C20.1339 31.887 18.4318 30.1486 17.2087 28.1201C16.8522 27.5285 16.0818 27.3385 15.4915 27.6949C14.9 28.0513 14.7099 28.8204 15.0663 29.412C16.4933 31.7782 18.4793 33.8067 20.8955 35.2899C21.4007 35.6001 21.9523 36.2629 22.0686 36.8445L22.5113 39.0543C22.6764 39.8835 23.1541 40.5876 23.807 41.0528V44.1569H23.1816C21.8097 44.1569 20.6804 45.2862 20.6804 46.6581V47.9087C20.6804 48.5716 20.9443 49.2081 21.4133 49.6771C21.7772 50.041 22.2412 50.2812 22.7414 50.3712ZM34.8375 50.41H34.396C33.7057 50.41 33.1454 49.8497 33.1454 49.1594C33.1454 48.469 33.7057 47.9087 34.396 47.9087H36.9385V46.7582C36.8585 46.7381 36.7447 46.6581 36.9385 46.6581H23.1816V47.8087C23.2617 47.8287 23.3755 47.9087 23.1816 47.9087H30.3777C31.0668 47.9087 31.6284 48.469 31.6284 49.1594C31.6284 49.8497 31.0668 50.41 30.3777 50.41H25.2827L25.983 54.6071C26.0593 55.0698 26.4645 55.4125 26.9335 55.4125H33.1866C33.6556 55.4125 34.0608 55.0698 34.1371 54.6071L34.8375 50.41ZM28.8095 44.1569V41.6556H26.3082V44.1569H28.8095ZM33.812 44.1569V41.6556H31.3107V44.1569H33.812ZM30.0601 5.38748C30.3865 5.38748 30.6779 5.58508 30.9718 5.86772C31.4395 6.3167 31.8635 6.98202 32.2524 7.80744C33.5931 10.6451 34.4373 15.2286 34.4373 20.395C34.4348 25.8177 33.4943 30.8102 31.916 33.6091C31.5921 34.1856 31.2282 35.4337 31.1544 36.513L31.0005 38.7229C30.9918 38.8605 30.963 39.0168 30.9318 39.1544H29.1884C29.1571 39.0168 29.1284 38.8605 29.1196 38.7229L28.9658 36.513C28.892 35.4337 28.5281 34.1856 28.2042 33.6091C26.6259 30.8102 25.6854 25.8177 25.6829 20.395C25.6829 15.2286 26.5271 10.6451 27.8677 7.80744C28.2567 6.98202 28.6806 6.3167 29.1484 5.86772C29.4423 5.58508 29.7337 5.38748 30.0601 5.38748ZM34.1009 5.93776C35.7767 8.94926 36.9385 14.2919 36.9385 20.395V20.3962C36.936 26.3292 35.8217 31.7757 34.0958 34.8384C33.8895 35.2024 33.6969 36.0028 33.6494 36.6856L33.4968 38.8955C33.4905 38.9843 33.4818 39.0706 33.473 39.1544H34.4373C34.7862 39.1544 35.0888 38.9067 35.1564 38.5641L35.5979 36.3542C35.8342 35.1749 36.891 33.7879 37.9153 33.1576C42.3225 30.4525 45.0588 25.6351 45.0676 20.3937C45.0676 13.5065 40.4265 7.70239 34.1009 5.93776Z" fill="#EB662B"/>
<path fill-rule="evenodd" clip-rule="evenodd" d="M12.3949 38.0138C12.3636 37.98 12.3323 37.9487 12.2986 37.9187C11.3956 37.1283 10.2288 36.6531 8.9557 36.6531C6.12054 36.6531 3.79688 39.0193 3.79688 41.9682C3.79688 44.9172 6.12054 47.2834 8.9557 47.2834H14.4271C16.8308 47.2834 18.8043 45.2811 18.8043 42.7811C18.8043 40.2811 16.8308 38.2789 14.4271 38.2789C13.8894 38.2789 13.3741 38.3789 12.8976 38.5615L12.3949 38.0138ZM10.6027 39.7596L11.7108 40.9652C12.141 41.4342 12.8551 41.5042 13.3691 41.1291C13.6693 40.9102 14.0332 40.7801 14.4271 40.7801C15.4777 40.7801 16.3031 41.6893 16.3031 42.7811C16.3031 43.8729 15.4777 44.7821 14.4271 44.7821H8.9557C7.47371 44.7821 6.29813 43.509 6.29813 41.9682C6.29813 40.4275 7.47371 39.1543 8.9557 39.1543C9.57726 39.1543 10.1488 39.3807 10.599 39.7571L10.6027 39.7596Z" fill="#EB662B"/>
<path fill-rule="evenodd" clip-rule="evenodd" d="M51.0007 29.4408L50.7168 29.7384C50.4129 29.6484 50.0903 29.5996 49.7576 29.5996C47.8717 29.5996 46.3184 31.1654 46.3184 33.1264C46.3184 35.0874 47.8717 36.6531 49.7576 36.6531H53.5883C55.7756 36.6531 57.574 34.8322 57.574 32.5574C57.574 30.2825 55.7756 28.4615 53.5883 28.4615C52.6028 28.4615 51.6986 28.828 51.0007 29.4408ZM52.6966 31.2817C52.9429 31.0829 53.2518 30.9628 53.5883 30.9628C54.4212 30.9628 55.0728 31.6894 55.0728 32.5574C55.0728 33.4253 54.4212 34.1519 53.5883 34.1519H49.7576C49.2261 34.1519 48.8196 33.6792 48.8196 33.1264C48.8196 32.5736 49.2261 32.1009 49.7576 32.1009C49.9514 32.1009 50.1303 32.1646 50.2766 32.2722C50.7906 32.6486 51.5047 32.5774 51.9362 32.1096L52.6928 31.2842L52.6966 31.2817Z" fill="#EB662B"/>
<path d="M14.595 26.6086C15.286 26.6086 15.8461 26.0484 15.8461 25.3574C15.8461 24.6664 15.286 24.1063 14.595 24.1063C13.904 24.1063 13.3438 24.6664 13.3438 25.3574C13.3438 26.0484 13.904 26.6086 14.595 26.6086Z" fill="#EB662B"/>
</g>
</g>
<defs>
<clipPath id="clip0_2103_6865">
<rect width="60" height="60" fill="white" transform="translate(0 0.25)"/>
</clipPath>
<clipPath id="clip1_2103_6865">
<rect width="60" height="60" fill="white" transform="translate(0 0.25)"/>
</clipPath>
</defs>
</svg>
