<svg width="190" height="31" viewBox="0 0 190 31" fill="none" xmlns="http://www.w3.org/2000/svg">
<g clip-path="url(#clip0_2103_7263)">
<g clip-path="url(#clip1_2103_7263)">
<g clip-path="url(#clip2_2103_7263)">
<mask id="mask0_2103_7263" style="mask-type:luminance" maskUnits="userSpaceOnUse" x="47" y="0" width="96" height="30">
<path d="M142.109 0.815918H47.6924V29.4832H142.109V0.815918Z" fill="white"/>
</mask>
<g mask="url(#mask0_2103_7263)">
<path d="M47.6924 21.089V1.23592H51.1793V21.089H47.6924ZM60.1066 6.68668C59.12 6.66446 58.1388 6.83988 57.221 7.20264C56.3032 7.56538 55.4672 8.10813 54.7624 8.7989C54.0575 9.48967 53.498 10.3145 53.1168 11.2248C52.7356 12.1352 52.5404 13.1125 52.5427 14.0995C52.545 15.0864 52.7448 16.0629 53.1302 16.9713C53.5157 17.8798 54.0791 18.7021 54.7871 19.3895C55.4952 20.077 56.3337 20.6158 57.2532 20.9742C58.1727 21.3327 59.1547 21.5036 60.1412 21.4767C61.12 21.4864 62.0911 21.3017 62.9982 20.9334C63.9051 20.5649 64.7298 20.0201 65.4247 19.3306C66.1194 18.641 66.6705 17.8204 67.0457 16.9162C67.4211 16.0121 67.6131 15.0425 67.6108 14.0636C67.6085 13.0847 67.412 12.116 67.0325 11.2136C66.653 10.3112 66.0981 9.49319 65.4 8.8069C64.702 8.12059 63.8746 7.57968 62.966 7.21553C62.0573 6.85138 61.0854 6.67239 60.1066 6.68668ZM60.0662 10.0467C60.99 10.0438 61.8862 10.3611 62.6023 10.9446C63.3183 11.5281 63.8101 12.3418 63.9937 13.2471C64.1774 14.1524 64.0416 15.0934 63.6096 15.9099C63.1775 16.7262 62.4757 17.3677 61.6239 17.725C60.772 18.0823 59.8227 18.1333 58.9375 17.8693C58.0522 17.6054 57.2859 17.0428 56.7688 16.2774C56.2517 15.5119 56.0158 14.5909 56.1014 13.6712C56.187 12.7514 56.5887 11.8897 57.2382 11.2328C57.9876 10.48 59.004 10.0537 60.0662 10.0467ZM76.4093 6.68668C75.4227 6.66446 74.4415 6.83988 73.5237 7.20264C72.6059 7.56538 71.7699 8.10813 71.065 8.7989C70.3602 9.48967 69.8007 10.3145 69.4194 11.2248C69.0383 12.1352 68.8431 13.1125 68.8454 14.0995C68.8477 15.0864 69.0474 16.0629 69.4329 16.9713C69.8184 17.8798 70.3817 18.7021 71.0898 19.3895C71.798 20.077 72.6365 20.6158 73.556 20.9742C74.4755 21.3327 75.4574 21.5036 76.4439 21.4767C77.4293 21.5007 78.4093 21.3256 79.3253 20.9617C80.2413 20.5979 81.0744 20.0529 81.7748 19.3594C82.4751 18.6658 83.0282 17.8381 83.4009 16.9256C83.7736 16.0131 83.9583 15.0349 83.9439 14.0494C84.0418 12.6897 83.6373 11.3415 82.8074 10.2601L83.7743 9.92899V7.09861H78.8278C78.0483 6.82851 77.2296 6.68932 76.4047 6.68668H76.4093ZM76.3689 10.0467C77.2926 10.0443 78.1885 10.3621 78.9042 10.9459C79.6199 11.5297 80.1112 12.3436 80.2944 13.2489C80.4777 14.1541 80.3415 15.0949 79.9093 15.9111C79.4769 16.7274 78.775 17.3684 77.9232 17.7254C77.0714 18.0824 76.1221 18.1332 75.237 17.8691C74.3519 17.605 73.5857 17.0424 73.0688 16.2769C72.5519 15.5114 72.3162 14.5906 72.4019 13.6709C72.4875 12.7512 72.8892 11.8897 73.5385 11.2328C74.2885 10.4795 75.3059 10.0531 76.3689 10.0467ZM80.4074 22.0559C80.4074 23.1234 79.9833 24.1469 79.2286 24.9018C78.4739 25.6565 77.4502 26.0806 76.3828 26.0806C75.3153 26.0806 74.2917 25.6565 73.5369 24.9018C72.7822 24.1469 72.3582 23.1234 72.3582 22.0559H68.8193C68.8028 23.0507 68.9895 24.0382 69.3682 24.9582C69.7468 25.8782 70.3094 26.7111 71.0213 27.406C71.7332 28.1008 72.5796 28.643 73.5084 28.9992C74.4373 29.3554 75.4291 29.5181 76.4232 29.4775C77.4078 29.5026 78.3876 29.3285 79.3034 28.9657C80.2192 28.603 81.0523 28.0589 81.7528 27.3663C82.4532 26.6736 83.0064 25.8467 83.3793 24.9349C83.7524 24.0231 83.9373 23.0455 83.9232 22.0606L80.4074 22.0559ZM85.3481 21.0856V7.09861H88.8362V21.089L85.3481 21.0856ZM92.2216 21.0856V10.2325H90.3512V7.09861H92.2216V2.80284H95.7085V7.09861H97.6297V10.2325H95.7085V21.089L92.2216 21.0856ZM89.3935 3.12361C89.3935 3.58003 89.2582 4.0262 89.0046 4.40569C88.7511 4.78519 88.3906 5.08098 87.969 5.25564C87.5473 5.43031 87.0833 5.476 86.6356 5.38696C86.188 5.29791 85.7768 5.07813 85.4541 4.7554C85.1313 4.43266 84.9115 4.02147 84.8225 3.57381C84.7335 3.12617 84.7792 2.66217 84.9538 2.2405C85.1285 1.81881 85.4243 1.45841 85.8038 1.20483C86.1833 0.951262 86.6294 0.815918 87.0858 0.815918C87.6978 0.815918 88.2848 1.05905 88.7176 1.49182C89.1504 1.9246 89.3935 2.51157 89.3935 3.12361ZM105.47 6.67745C104.484 6.65746 103.505 6.83898 102.591 7.21089C101.678 7.58281 100.851 8.13727 100.159 8.84032C99.4678 9.54339 98.9272 10.3802 98.5707 11.2995C98.2141 12.2188 98.049 13.2013 98.0855 14.1867C98.0451 15.17 98.2117 16.1509 98.5746 17.0658C98.9375 17.9806 99.4885 18.809 100.192 19.4973C100.896 20.1856 101.736 20.7183 102.658 21.0611C103.581 21.4039 104.565 21.5491 105.547 21.4871C106.733 21.5246 107.912 21.307 109.006 20.8491C110.1 20.3913 111.083 19.7038 111.888 18.8332L109.557 16.499C108.511 17.5942 107.101 18.2697 105.592 18.3982C104.717 18.4326 103.858 18.1614 103.161 17.6311C102.464 17.1006 101.973 16.3443 101.773 15.4917H112.64V14.5317C112.64 10.6998 110.422 6.67861 105.476 6.67861L105.47 6.67745ZM105.355 9.74784C106.211 9.69858 107.056 9.96927 107.724 10.5074C108.393 11.0455 108.837 11.8127 108.972 12.6602H101.668C101.84 11.8164 102.305 11.0607 102.981 10.5275C103.657 9.9943 104.5 9.71803 105.36 9.74784H105.355ZM121.357 21.4882C120.385 21.4892 119.421 21.2986 118.522 20.9272C117.623 20.5558 116.806 20.0111 116.117 19.3239C114.727 17.936 113.944 16.0527 113.942 14.0881C113.94 12.1234 114.719 10.2384 116.107 8.8478C117.494 7.45719 119.378 6.67483 121.342 6.67284C122.485 6.6643 123.614 6.91098 124.649 7.39487C125.684 7.87877 126.597 8.58766 127.323 9.46976L124.885 11.8928C124.449 11.3594 123.907 10.9221 123.294 10.6087C122.681 10.2953 122.009 10.1125 121.322 10.0721C120.792 10.0589 120.265 10.1531 119.773 10.349C119.281 10.5449 118.834 10.8384 118.458 11.2119C118.082 11.5854 117.786 12.0311 117.587 12.5222C117.389 13.0131 117.291 13.5394 117.302 14.069C117.288 14.5998 117.382 15.1279 117.577 15.6217C117.772 16.1157 118.065 16.5651 118.437 16.9436C118.81 17.3219 119.255 17.6214 119.746 17.8242C120.236 18.0269 120.763 18.1287 121.294 18.1236C121.987 18.0876 122.664 17.9068 123.283 17.5927C123.901 17.2788 124.447 16.8385 124.885 16.3006L127.342 18.7236C126.615 19.6029 125.699 20.308 124.663 20.7872C123.627 21.2664 122.497 21.5075 121.356 21.4929L121.357 21.4882ZM128.613 21.0994V1.18515H132.1V8.50168C132.624 7.89864 133.278 7.42126 134.012 7.10489C134.746 6.78852 135.542 6.64126 136.34 6.67399C139.992 6.67399 142.109 9.38899 142.109 12.8609V21.0994H138.615V13.3929C138.668 12.9673 138.627 12.5356 138.495 12.1277C138.363 11.7197 138.144 11.3455 137.852 11.0312C137.56 10.7169 137.204 10.4701 136.807 10.308C136.41 10.1459 135.982 10.0725 135.554 10.0928C135.089 10.0558 134.62 10.1206 134.182 10.2827C133.744 10.4449 133.347 10.7005 133.017 11.0317C132.688 11.363 132.435 11.762 132.275 12.2009C132.115 12.64 132.053 13.1086 132.093 13.574V21.1052H128.613V21.0994Z" fill="#05073C"/>
</g>
</g>
</g>
</g>
<defs>
<clipPath id="clip0_2103_7263">
<rect width="100" height="30" fill="white" transform="translate(45 0.439941)"/>
</clipPath>
<clipPath id="clip1_2103_7263">
<rect width="100" height="30" fill="white" transform="translate(45 0.439941)"/>
</clipPath>
<clipPath id="clip2_2103_7263">
<rect width="94.6154" height="30" fill="white" transform="translate(47.6924 0.439941)"/>
</clipPath>
</defs>
</svg>
