<svg width="60" height="61" viewBox="0 0 60 61" fill="none" xmlns="http://www.w3.org/2000/svg">
<g clip-path="url(#clip0_2103_6898)">
<g clip-path="url(#clip1_2103_6898)">
<path d="M38.7677 31.9963V55.3216C38.7677 56.3191 37.6455 56.9426 36.7727 56.3191L30.0396 51.4563L23.3065 56.3191C22.4337 56.9426 21.3115 56.3191 21.3115 55.3216V31.9963H38.7677Z" fill="white"/>
<path d="M30.0393 38.9875C39.6801 38.9875 47.4955 31.1721 47.4955 21.5313C47.4955 11.8904 39.6801 4.07501 30.0393 4.07501C20.3985 4.07501 12.583 11.8904 12.583 21.5313C12.583 31.1721 20.3985 38.9875 30.0393 38.9875Z" fill="#FDF0EA"/>
<path d="M31.2862 13.0525L32.5331 16.9178C32.6578 17.4165 33.1565 17.7906 33.78 17.7906H37.77C39.0169 17.7906 39.5156 19.2869 38.5181 20.035L35.2762 22.4041C34.7775 22.7781 34.6528 23.2769 34.7775 23.7756L36.0243 27.6409C36.3984 28.7631 35.0268 29.7606 34.154 29.0125L30.9122 26.6434C30.4134 26.2694 29.9147 26.2694 29.4159 26.6434L26.174 29.0125C25.1765 29.7606 23.9296 28.7631 24.3037 27.6409L25.5506 23.7756C25.6753 23.2769 25.5506 22.6535 25.0518 22.4041L21.81 20.035C20.8125 19.2869 21.3112 17.7906 22.5581 17.7906H26.5481C27.0469 17.7906 27.5456 17.4165 27.795 16.9178L29.0419 13.0525C29.1665 11.9303 30.9122 11.9303 31.2862 13.0525Z" fill="white"/>
<path d="M13.2929 27.7604C13.9831 27.7604 14.5427 27.2008 14.5427 26.5105C14.5427 25.8203 13.9831 25.2607 13.2929 25.2607C12.6026 25.2607 12.043 25.8203 12.043 26.5105C12.043 27.2008 12.6026 27.7604 13.2929 27.7604Z" fill="#EB662B"/>
<path fill-rule="evenodd" clip-rule="evenodd" d="M20.2563 37.5573C17.535 35.8364 15.2876 33.4352 13.7543 30.5913C13.4267 29.9847 13.6543 29.2256 14.2621 28.8979C14.8699 28.5703 15.629 28.7966 15.9567 29.4044C18.6968 34.4857 24.067 37.9412 30.2401 37.9412C39.1908 37.9412 46.4569 30.6751 46.4569 21.7256C46.4569 17.6323 44.9374 13.8917 42.4311 11.0365C41.9759 10.5188 42.0285 9.72712 42.5462 9.27189C43.0652 8.81666 43.8569 8.86795 44.3121 9.38696C47.2036 12.6824 48.9582 17.0008 48.9582 21.7256C48.9582 28.3865 45.4702 34.2394 40.2238 37.5573V50.5C40.2238 51.1903 39.6635 51.7506 38.9732 51.7506C38.2828 51.7506 37.7226 51.1903 37.7226 50.5V38.8855C35.4314 39.8872 32.9001 40.4425 30.2401 40.4425C27.58 40.4425 25.0487 39.8872 22.7576 38.8855V55.5363C22.7576 55.5288 22.7701 55.5187 22.7764 55.5162L29.5085 50.6551C29.9449 50.3387 30.5352 50.3387 30.9717 50.6551C30.9717 50.6551 37.71 55.5213 37.7038 55.5175C37.715 55.525 37.7226 55.5488 37.7226 55.5363V54.2519C37.7226 53.5615 38.2828 53.0013 38.9732 53.0013C39.6635 53.0013 40.2238 53.5615 40.2238 54.2519V55.5363C40.2238 57.5298 37.9939 58.7979 36.2506 57.5523L36.2456 57.5485L30.2401 53.2114L24.2346 57.5485L24.2296 57.5523C22.4862 58.7979 20.2563 57.5298 20.2563 55.5363V37.5573ZM14.0657 22.8974C14.1145 23.5853 13.5955 24.1844 12.9076 24.2331C12.2186 24.2832 11.6195 23.7642 11.5707 23.0751C11.5382 22.6298 11.522 22.1796 11.522 21.7256C11.522 11.3942 19.9099 3.00751 30.2401 3.00751C34.2271 3.00751 37.9252 4.25691 40.9629 6.38547C41.5282 6.78067 41.6658 7.56106 41.2693 8.12634C40.8729 8.69162 40.0925 8.82919 39.5272 8.43399C36.8959 6.59057 33.693 5.50876 30.2401 5.50876C21.2893 5.50876 14.0232 12.7749 14.0232 21.7256C14.0232 22.1196 14.0382 22.5097 14.0657 22.8974ZM26.707 16.7319C26.7283 16.7144 26.7984 16.6556 26.8459 16.5956C26.8459 16.5956 28.019 12.9575 28.019 12.9625C28.179 12.0057 28.8556 11.4142 29.6885 11.2166C30.8128 10.949 32.2286 11.5068 32.6763 12.8512L33.9244 16.7219C33.9419 16.7269 33.9657 16.7319 33.9832 16.7319H37.9752C39.2158 16.7319 40.0687 17.4985 40.3789 18.429C40.689 19.3594 40.4664 20.4837 39.4684 21.2329C39.4684 21.2329 36.2281 23.6003 36.2206 23.6066C36.2056 23.6203 36.1943 23.6353 36.1931 23.6541C36.1931 23.6541 37.4187 27.4547 37.4149 27.4435C37.7913 28.5703 37.3123 29.6421 36.4982 30.2361C35.6565 30.8514 34.4972 30.9465 33.5867 30.1973L30.3689 27.8462L30.3651 27.8424L30.3601 27.8462L27.1122 30.2186C25.0887 31.7231 22.5562 29.7171 23.3104 27.4547C23.3104 27.4547 24.5385 23.6491 24.5385 23.6441C24.5397 23.6391 24.5397 23.6341 24.5397 23.6291L21.2618 21.2329L21.2556 21.2291C20.2626 20.4838 20.0412 19.3594 20.3514 18.429C20.6615 17.4985 21.5132 16.7319 22.7538 16.7319H26.707ZM22.7638 19.2331C22.9489 19.3694 25.9217 21.5405 25.9167 21.538C26.8684 22.0846 27.211 23.2776 26.9622 24.2744L26.9522 24.3144L25.7178 28.1413C26.2393 27.7599 28.8756 25.8327 28.8756 25.8327C29.3684 25.4662 29.8711 25.3087 30.3651 25.3087C30.8579 25.3087 31.3606 25.4662 31.8546 25.8327L35.0125 28.1401L33.7781 24.3144L33.7681 24.2744C33.5255 23.3027 33.7581 22.3272 34.7361 21.593C34.7361 21.593 37.6888 19.4357 37.9652 19.2331H33.9832C32.7476 19.2331 31.8009 18.439 31.5345 17.461L30.3651 13.8342L29.1558 17.5835L29.1133 17.6686C28.648 18.5978 27.6763 19.2331 26.7471 19.2331H22.7638Z" fill="#EB662B"/>
</g>
</g>
<defs>
<clipPath id="clip0_2103_6898">
<rect width="60" height="60" fill="white" transform="translate(0 0.25)"/>
</clipPath>
<clipPath id="clip1_2103_6898">
<rect width="60" height="60" fill="white" transform="translate(0 0.25)"/>
</clipPath>
</defs>
</svg>
