<svg width="190" height="31" viewBox="0 0 190 31" fill="none" xmlns="http://www.w3.org/2000/svg">
<g clip-path="url(#clip0_2103_7272)">
<g clip-path="url(#clip1_2103_7272)">
<g clip-path="url(#clip2_2103_7272)">
<mask id="mask0_2103_7272" style="mask-type:luminance" maskUnits="userSpaceOnUse" x="45" y="0" width="99" height="31">
<path d="M143.9 0.765625H45.5V30.2776H143.9V0.765625Z" fill="white"/>
</mask>
<g mask="url(#mask0_2103_7272)">
<path d="M60.256 0.765625C57.3376 0.765822 54.4847 1.63141 52.0583 3.25294C49.6318 4.87447 47.7406 7.17912 46.6239 9.87544C45.5072 12.5717 45.2152 15.5386 45.7846 18.4009C46.3541 21.2633 47.7596 23.8924 49.8233 25.956C51.887 28.0196 54.5162 29.4248 57.3786 29.9941C60.241 30.5634 63.2078 30.2711 65.9041 29.1543C68.6003 28.0374 70.9049 26.1461 72.5262 23.7195C74.1476 21.2929 75.013 18.44 75.013 15.5216C75.013 13.5837 74.6313 11.6648 73.8897 9.87452C73.148 8.08417 72.061 6.45744 70.6907 5.0872C69.3204 3.71697 67.6936 2.63007 65.9032 1.88857C64.1128 1.14707 62.1939 0.765493 60.256 0.765625ZM67.023 22.0476C66.9596 22.1504 66.8767 22.2397 66.7788 22.3104C66.681 22.3811 66.5701 22.4318 66.4526 22.4597C66.3352 22.4876 66.2134 22.492 66.0942 22.4728C65.975 22.4535 65.8607 22.411 65.758 22.3476C62.293 20.2316 57.932 19.7476 52.795 20.9256C52.5571 20.9798 52.3074 20.9373 52.1008 20.8075C51.8942 20.6776 51.7477 20.471 51.6935 20.2331C51.6392 19.9952 51.6817 19.7455 51.8116 19.5389C51.9415 19.3323 52.1481 19.1858 52.386 19.1316C58.007 17.8476 62.829 18.4006 66.718 20.7776C66.8218 20.8406 66.912 20.9236 66.9836 21.0216C67.0552 21.1197 67.1066 21.231 67.135 21.3491C67.1633 21.4671 67.168 21.5896 67.1488 21.7095C67.1296 21.8294 67.0868 21.9443 67.023 22.0476ZM68.829 18.0296C68.6695 18.2896 68.4133 18.4758 68.1166 18.547C67.82 18.6183 67.5072 18.5688 67.247 18.4096C62.768 15.9125 57.4816 15.2936 52.547 16.6886C52.2552 16.7778 51.94 16.7475 51.6706 16.6043C51.4012 16.4612 51.1997 16.2168 51.1105 15.9251C51.0212 15.6333 51.0515 15.3181 51.1947 15.0487C51.3379 14.7793 51.5822 14.5778 51.874 14.4886C54.6278 13.6958 57.5123 13.4608 60.3581 13.7973C63.204 14.1339 65.954 15.0353 68.447 16.4486C68.5758 16.5275 68.6877 16.6311 68.7765 16.7534C68.8653 16.8756 68.929 17.0141 68.9642 17.1611C68.9994 17.308 69.0053 17.4604 68.9816 17.6096C68.9579 17.7588 68.905 17.9018 68.826 18.0306L68.829 18.0296ZM68.984 13.8456C64.228 11.0206 56.384 10.7606 51.841 12.1396C51.6665 12.1961 51.4825 12.2172 51.2997 12.2017C51.1169 12.1863 50.9391 12.1345 50.7765 12.0495C50.614 11.9645 50.47 11.848 50.3531 11.7067C50.2361 11.5654 50.1485 11.4023 50.0953 11.2267C50.0421 11.0512 50.0245 10.8668 50.0434 10.6844C50.0623 10.5019 50.1174 10.3251 50.2054 10.1642C50.2935 10.0033 50.4127 9.86157 50.5562 9.74729C50.6997 9.63301 50.8645 9.54847 51.041 9.49862C56.253 7.91662 64.918 8.22162 70.394 11.4726C70.5499 11.565 70.686 11.6873 70.7946 11.8323C70.9033 11.9774 70.9823 12.1425 71.0271 12.3181C71.072 12.4936 71.0818 12.6764 71.056 12.8557C71.0303 13.0351 70.9694 13.2077 70.877 13.3636C70.7845 13.5195 70.6623 13.6556 70.5172 13.7642C70.3722 13.8729 70.2071 13.9519 70.0315 13.9967C69.8559 14.0416 69.6732 14.0514 69.4938 14.0256C69.3144 13.9999 69.1419 13.939 68.986 13.8466L68.984 13.8456ZM85.647 14.3886C83.099 13.7806 82.647 13.3546 82.647 12.4586C82.647 11.6116 83.447 11.0426 84.629 11.0426C85.9037 11.0881 87.1277 11.5532 88.111 12.3656C88.1289 12.3788 88.1492 12.3883 88.1708 12.3936C88.1923 12.3988 88.2148 12.3998 88.2367 12.3963C88.2587 12.3929 88.2797 12.3851 88.2986 12.3735C88.3176 12.3619 88.334 12.3466 88.347 12.3286L89.591 10.5746C89.6156 10.5398 89.626 10.4969 89.6201 10.4547C89.6141 10.4126 89.5923 10.3742 89.559 10.3476C88.1804 9.22 86.4467 8.61765 84.666 8.64762C81.915 8.64762 79.993 10.2986 79.993 12.6606C79.993 15.1936 81.651 16.0906 84.516 16.7826C86.953 17.3446 87.365 17.8146 87.365 18.6556C87.365 19.5876 86.533 20.1676 85.194 20.1676C83.6752 20.1559 82.2203 19.555 81.136 18.4916C81.1021 18.4627 81.0584 18.4481 81.014 18.4506C80.9919 18.452 80.9703 18.4579 80.9506 18.4679C80.9308 18.4779 80.9133 18.4917 80.899 18.5086L79.499 20.1686C79.4709 20.2019 79.4569 20.2448 79.4599 20.2883C79.4629 20.3318 79.4826 20.3724 79.515 20.4016C81.0533 21.7953 83.0572 22.5633 85.133 22.5546C88.097 22.5546 90.012 20.9356 90.012 18.4276C90.017 16.3116 88.75 15.1396 85.647 14.3856H85.642L85.647 14.3886ZM96.723 11.8756C96.1053 11.8675 95.4941 12.0026 94.9373 12.2703C94.3806 12.538 93.8934 12.9311 93.514 13.4186V12.2506C93.5141 12.2287 93.5099 12.207 93.5016 12.1868C93.4934 12.1665 93.4811 12.1481 93.4657 12.1326C93.4503 12.117 93.4319 12.1047 93.4117 12.0963C93.3915 12.0879 93.3699 12.0836 93.348 12.0836H91.067C91.0451 12.0836 91.0234 12.0879 91.0032 12.0963C90.983 12.1047 90.9647 12.117 90.9492 12.1326C90.9338 12.1481 90.9216 12.1665 90.9133 12.1868C90.905 12.207 90.9008 12.2287 90.901 12.2506V25.2196C90.901 25.2637 90.9184 25.306 90.9495 25.3373C90.9806 25.3686 91.0229 25.3863 91.067 25.3866H93.347C93.3911 25.3863 93.4333 25.3686 93.4644 25.3373C93.4955 25.306 93.513 25.2637 93.513 25.2196V21.1266C93.9064 21.5918 94.3985 21.9636 94.9536 22.2147C95.5087 22.4659 96.1128 22.5902 96.722 22.5786C99.11 22.5786 101.527 20.7406 101.527 17.2276C101.527 13.7146 99.113 11.8746 96.727 11.8746L96.723 11.8756ZM98.875 17.2276C98.9149 17.6063 98.8758 17.9893 98.76 18.3521C98.6442 18.7149 98.4544 19.0498 98.2024 19.3354C97.9505 19.621 97.6419 19.8511 97.2964 20.0113C96.9508 20.1714 96.5758 20.258 96.195 20.2656C95.8133 20.2534 95.438 20.1642 95.0916 20.0033C94.7453 19.8425 94.4349 19.6133 94.1793 19.3296C93.9237 19.0459 93.7281 18.7134 93.6041 18.3522C93.4801 17.991 93.4304 17.6085 93.458 17.2276C93.4303 16.8466 93.4799 16.464 93.6038 16.1026C93.7277 15.7413 93.9233 15.4087 94.1789 15.1249C94.4346 14.8411 94.7449 14.6118 95.0914 14.4509C95.4378 14.29 95.8132 14.2008 96.195 14.1886C96.5742 14.2006 96.947 14.2901 97.2904 14.4516C97.6337 14.6132 97.9404 14.8433 98.1915 15.1278C98.4425 15.4123 98.6327 15.7452 98.7503 16.106C98.8678 16.4667 98.9102 16.8478 98.875 17.2256V17.2276ZM107.722 11.8756C106.665 11.8955 105.638 12.2271 104.769 12.8289C103.901 13.4306 103.229 14.2757 102.839 15.2578C102.449 16.24 102.357 17.3156 102.576 18.3494C102.796 19.3833 103.315 20.3294 104.07 21.0689C104.825 21.8084 105.782 22.3084 106.82 22.506C107.858 22.7037 108.932 22.5901 109.906 22.1798C110.88 21.7694 111.71 21.0804 112.294 20.1993C112.878 19.3183 113.188 18.2844 113.186 17.2276C113.182 16.5163 113.038 15.8128 112.76 15.1578C112.483 14.5028 112.079 13.9092 111.571 13.4115C111.063 12.9138 110.461 12.5218 109.8 12.2581C109.14 11.9945 108.433 11.8645 107.722 11.8756ZM107.722 20.2836C107.33 20.28 106.943 20.197 106.585 20.0398C106.226 19.8825 105.903 19.6542 105.634 19.3686C105.366 19.083 105.159 18.7461 105.025 18.3781C104.89 18.0101 104.832 17.6187 104.853 17.2276C104.828 16.8403 104.882 16.452 105.013 16.0866C105.144 15.7213 105.348 15.3867 105.614 15.1037C105.879 14.8206 106.2 14.5951 106.557 14.4412C106.913 14.2872 107.297 14.208 107.685 14.2086C108.078 14.2113 108.466 14.2936 108.826 14.4503C109.186 14.6071 109.511 14.8352 109.781 15.1209C110.05 15.4065 110.259 15.7438 110.395 16.1124C110.531 16.481 110.591 16.8733 110.571 17.2656C110.595 17.654 110.54 18.0433 110.407 18.4093C110.275 18.7753 110.069 19.1101 109.802 19.3931C109.535 19.6761 109.212 19.9012 108.854 20.0544C108.497 20.2076 108.111 20.2856 107.722 20.2836ZM119.752 12.0836H117.241V9.51662C117.241 9.49474 117.237 9.47305 117.229 9.45279C117.22 9.43253 117.208 9.41412 117.193 9.3986C117.177 9.38308 117.159 9.37076 117.139 9.36235C117.118 9.35395 117.097 9.34962 117.075 9.34962H114.794C114.75 9.34989 114.708 9.36756 114.676 9.39883C114.645 9.43009 114.627 9.47241 114.627 9.51662V12.0836H113.527C113.505 12.0836 113.483 12.0879 113.463 12.0963C113.443 12.1047 113.425 12.117 113.409 12.1326C113.394 12.1481 113.382 12.1665 113.373 12.1868C113.365 12.207 113.361 12.2287 113.361 12.2506V14.2116C113.361 14.2557 113.378 14.298 113.41 14.3293C113.441 14.3606 113.483 14.3783 113.527 14.3786H114.627V19.4526C114.627 21.5016 115.647 22.5416 117.661 22.5416C118.408 22.5595 119.146 22.3757 119.797 22.0096C119.823 21.9955 119.844 21.9747 119.859 21.9493C119.874 21.924 119.882 21.895 119.882 21.8656V19.9966C119.882 19.9683 119.875 19.9405 119.861 19.9158C119.847 19.8911 119.827 19.8704 119.803 19.8556C119.779 19.8403 119.751 19.8316 119.723 19.8304C119.695 19.8291 119.666 19.8354 119.641 19.8486C119.227 20.0626 118.768 20.1731 118.302 20.1706C117.571 20.1706 117.243 19.8376 117.243 19.0936V14.3796H119.754C119.776 14.3796 119.798 14.3753 119.818 14.3669C119.838 14.3584 119.856 14.3461 119.872 14.3306C119.887 14.3151 119.899 14.2967 119.908 14.2764C119.916 14.2562 119.92 14.2345 119.92 14.2126V12.2526C119.921 12.2307 119.917 12.209 119.909 12.1886C119.901 12.1682 119.889 12.1497 119.874 12.1341C119.858 12.1185 119.84 12.1061 119.82 12.0978C119.8 12.0895 119.778 12.0853 119.756 12.0856L119.752 12.0836ZM128.499 12.0936V11.7786C128.499 10.8516 128.855 10.4376 129.651 10.4376C130.09 10.4428 130.525 10.5229 130.937 10.6746C130.962 10.683 130.989 10.6854 131.015 10.6814C131.041 10.6774 131.066 10.6672 131.088 10.6516C131.109 10.636 131.126 10.6156 131.138 10.5919C131.15 10.5682 131.156 10.5421 131.156 10.5156V8.58862C131.156 8.55275 131.145 8.51773 131.124 8.48886C131.103 8.45999 131.072 8.43884 131.038 8.42862C130.422 8.24067 129.782 8.14892 129.138 8.15662C127.032 8.15662 125.917 9.34362 125.917 11.5866V12.0696H124.817C124.773 12.0698 124.731 12.0875 124.699 12.1188C124.668 12.15 124.65 12.1924 124.65 12.2366V14.2076C124.65 14.2518 124.668 14.2941 124.699 14.3254C124.731 14.3566 124.773 14.3743 124.817 14.3746H125.917V22.1996C125.917 22.2439 125.935 22.2864 125.966 22.3177C125.997 22.349 126.04 22.3666 126.084 22.3666H128.364C128.386 22.3667 128.408 22.3625 128.428 22.3541C128.448 22.3458 128.467 22.3335 128.482 22.318C128.498 22.3024 128.51 22.284 128.519 22.2636C128.527 22.2433 128.531 22.2216 128.531 22.1996V14.3796H130.661L133.924 22.2036C133.554 23.0246 133.189 23.1886 132.692 23.1886C132.249 23.1776 131.816 23.0544 131.434 22.8306C131.393 22.8101 131.346 22.8058 131.302 22.8186C131.28 22.8258 131.26 22.8375 131.243 22.853C131.225 22.8685 131.211 22.8874 131.202 22.9086L130.428 24.6086C130.41 24.6471 130.408 24.691 130.421 24.7313C130.434 24.7716 130.463 24.8054 130.5 24.8256C131.242 25.2462 132.082 25.4616 132.935 25.4496C134.62 25.4496 135.552 24.6636 136.371 22.5496L140.337 12.3216C140.347 12.2965 140.351 12.2693 140.348 12.2425C140.345 12.2156 140.335 12.1899 140.32 12.1675C140.305 12.1451 140.285 12.1267 140.261 12.1138C140.238 12.1009 140.211 12.094 140.184 12.0936H137.808C137.773 12.0933 137.739 12.104 137.711 12.124C137.682 12.1441 137.66 12.1726 137.649 12.2056L135.216 19.1546L132.547 12.2016C132.535 12.1701 132.514 12.1431 132.486 12.124C132.458 12.1049 132.426 12.0946 132.392 12.0946H128.492L128.499 12.0936ZM123.428 12.0836H121.147C121.103 12.0838 121.061 12.1015 121.029 12.1328C120.998 12.164 120.98 12.2064 120.98 12.2506V22.2026C120.98 22.2245 120.984 22.2462 120.993 22.2665C121.001 22.2868 121.013 22.3052 121.029 22.3207C121.044 22.3362 121.063 22.3485 121.083 22.3569C121.103 22.3653 121.125 22.3696 121.147 22.3696H123.429C123.451 22.3696 123.473 22.3653 123.493 22.3569C123.513 22.3485 123.532 22.3362 123.547 22.3207C123.563 22.3052 123.575 22.2868 123.583 22.2665C123.592 22.2462 123.596 22.2245 123.596 22.2026V12.2516C123.596 12.2073 123.578 12.1648 123.547 12.1335C123.516 12.1022 123.473 12.0846 123.429 12.0846L123.428 12.0836ZM122.3 7.55162C121.976 7.55143 121.66 7.64718 121.391 7.82678C121.122 8.00639 120.912 8.26177 120.788 8.56063C120.664 8.85949 120.631 9.18842 120.694 9.50581C120.757 9.8232 120.913 10.1148 121.142 10.3437C121.37 10.5726 121.661 10.7286 121.979 10.792C122.296 10.8553 122.625 10.8231 122.924 10.6994C123.223 10.5758 123.479 10.3663 123.659 10.0974C123.839 9.82844 123.935 9.51219 123.935 9.18862C123.935 8.97378 123.893 8.76102 123.811 8.56248C123.729 8.36394 123.608 8.18351 123.456 8.0315C123.305 7.87949 123.124 7.75888 122.926 7.67654C122.728 7.5942 122.515 7.55175 122.3 7.55162ZM142.286 15.2886C141.968 15.2878 141.657 15.1928 141.393 15.0157C141.129 14.8385 140.923 14.5871 140.802 14.2931C140.681 13.9991 140.649 13.6758 140.711 13.3639C140.773 13.052 140.926 12.7655 141.151 12.5405C141.376 12.3155 141.662 12.1622 141.974 12.0998C142.286 12.0375 142.61 12.0689 142.904 12.1901C143.198 12.3113 143.449 12.5169 143.627 12.7809C143.804 13.0449 143.899 13.3555 143.9 13.6736C143.902 13.8861 143.862 14.097 143.781 14.2937C143.701 14.4905 143.582 14.6693 143.432 14.8197C143.282 14.97 143.103 15.0889 142.906 15.1694C142.709 15.2499 142.499 15.2905 142.286 15.2886ZM142.295 12.2286C142.007 12.2258 141.726 12.3086 141.485 12.4665C141.245 12.6243 141.057 12.8501 140.945 13.1151C140.833 13.3801 140.803 13.6723 140.857 13.9546C140.912 14.237 141.05 14.4966 141.253 14.7006C141.455 14.9046 141.714 15.0437 141.996 15.1002C142.278 15.1568 142.57 15.1282 142.836 15.0181C143.102 14.908 143.329 14.7214 143.488 14.482C143.647 14.2426 143.732 13.9612 143.731 13.6736C143.732 13.4842 143.696 13.2965 143.624 13.1213C143.553 12.946 143.447 12.7867 143.314 12.6524C143.18 12.5181 143.021 12.4115 142.847 12.3387C142.672 12.266 142.484 12.2286 142.295 12.2286ZM142.651 13.8386L143.106 14.4746H142.722L142.313 13.8916H141.962V14.4746H141.641V12.7886H142.392C142.785 12.7886 143.042 12.9886 143.042 13.3266C143.048 13.444 143.012 13.5598 142.941 13.6534C142.87 13.747 142.768 13.8126 142.653 13.8386H142.651ZM142.38 13.0786H141.962V13.6116H142.38C142.588 13.6116 142.713 13.5116 142.713 13.3446C142.713 13.1776 142.587 13.0736 142.379 13.0736L142.38 13.0786Z" fill="#05073C"/>
</g>
</g>
</g>
</g>
<defs>
<clipPath id="clip0_2103_7272">
<rect width="100" height="30" fill="white" transform="translate(45 0.439941)"/>
</clipPath>
<clipPath id="clip1_2103_7272">
<rect width="100" height="30" fill="white" transform="translate(45 0.439941)"/>
</clipPath>
<clipPath id="clip2_2103_7272">
<rect width="99" height="30" fill="white" transform="translate(45.5 0.439941)"/>
</clipPath>
</defs>
</svg>
