<svg width="60" height="61" viewBox="0 0 60 61" fill="none" xmlns="http://www.w3.org/2000/svg">
<g clip-path="url(#clip0_2103_6856)">
<g clip-path="url(#clip1_2103_6856)">
<path fill-rule="evenodd" clip-rule="evenodd" d="M56.368 31.4317C56.368 32.2459 55.8415 32.9675 55.0661 33.2164C53.2815 33.7479 51.9908 35.4087 51.9908 37.3685C51.9908 39.3282 53.2815 40.989 55.0573 41.5455C55.8215 41.7919 56.3405 42.5023 56.3405 43.3052C56.368 44.1594 56.368 45.2236 56.368 46.1228C56.368 47.1583 55.5276 47.9988 54.4921 47.9988C46.3217 47.9988 13.888 47.9988 5.71774 47.9988C4.68222 47.9988 3.8418 47.1583 3.8418 46.1228C3.8418 45.2236 3.8418 44.1594 3.8418 43.3052C3.8418 42.491 4.36831 41.7694 5.1437 41.5205C6.92834 40.989 8.21899 39.3282 8.21899 37.3685C8.21899 35.4087 6.92835 33.7479 5.15246 33.1914C4.38833 32.945 3.86932 32.2346 3.86932 31.4317C3.8418 30.8314 3.8418 30.1486 3.8418 29.5483C3.8418 28.7341 4.36831 28.0125 5.1437 27.7637C6.92834 27.2321 8.21899 25.5713 8.21899 23.6116C8.21899 21.6518 6.92835 19.991 5.15246 19.4345C4.38833 19.1881 3.86932 18.4777 3.86932 17.6748C3.8418 16.8207 3.8418 15.7564 3.8418 14.8572C3.8418 13.8217 4.68222 12.9813 5.71774 12.9813H54.4921C55.5276 12.9813 56.368 13.8217 56.368 14.8572V17.6748C56.368 18.489 55.8415 19.2106 55.0661 19.4595C53.2815 19.991 51.9908 21.6518 51.9908 23.6116C51.9908 25.5713 53.2815 27.2321 55.0573 27.7887C55.8215 28.035 56.3405 28.7454 56.3405 29.5483C56.368 30.1486 56.368 30.8314 56.368 31.4317Z" fill="#FDF0EA"/>
<path fill-rule="evenodd" clip-rule="evenodd" d="M32.1639 23.8649C32.5091 23.3343 33.1001 23.0147 33.7332 23.0147C34.3664 23.0147 34.9573 23.3343 35.3025 23.8649C35.6357 24.373 35.9568 24.8659 36.195 25.2307C36.4467 25.6151 36.8311 25.894 37.2743 26.0146C37.6949 26.1277 38.2617 26.2815 38.8482 26.4413C39.4602 26.6056 39.9456 27.0684 40.1416 27.6714C40.3376 28.2729 40.2155 28.9331 39.819 29.4261C39.4376 29.8994 39.0683 30.3578 38.7954 30.6969C38.5075 31.0542 38.3612 31.5064 38.3839 31.9662C38.405 32.4004 38.4336 32.9883 38.4637 33.5944C38.4954 34.2275 38.206 34.832 37.6934 35.2044C37.1824 35.5767 36.516 35.6657 35.9251 35.4395C35.3568 35.224 34.8065 35.0144 34.401 34.8591C33.9699 34.6963 33.4965 34.6963 33.0654 34.8591C32.6599 35.0144 32.1096 35.224 31.5413 35.4395C30.9504 35.6657 30.2841 35.5767 29.773 35.2044C29.2605 34.832 28.971 34.2275 29.0027 33.5944C29.0328 32.9883 29.0615 32.4004 29.0826 31.9662C29.1052 31.5064 28.959 31.0542 28.671 30.6969C28.3982 30.3578 28.0288 29.8994 27.6474 29.4261C27.251 28.9331 27.1288 28.2729 27.3248 27.6714C27.5208 27.0684 28.0062 26.6056 28.6183 26.4413C29.2047 26.2815 29.7715 26.1277 30.1921 26.0146C30.6353 25.894 31.0197 25.6151 31.2715 25.2307C31.5097 24.8659 31.8307 24.373 32.1639 23.8649Z" fill="white"/>
<path fill-rule="evenodd" clip-rule="evenodd" d="M22.6013 46.7482C23.2917 46.7482 23.8519 47.3084 23.8519 47.9988C23.8519 48.6891 23.2917 49.2494 22.6013 49.2494C21.911 49.2494 21.3507 48.6891 21.3507 47.9988C21.3507 47.3084 21.911 46.7482 22.6013 46.7482ZM52.6163 14.2319H54.4922C54.8374 14.2319 55.1176 14.512 55.1176 14.8572V17.6749C55.1176 17.9375 54.9525 18.1714 54.7074 18.2614C52.4049 18.9517 50.7404 21.0878 50.7404 23.6116C50.7404 26.1303 52.4 28.2652 54.6836 28.9818C54.9225 29.0593 55.09 29.2894 55.09 29.5483C55.09 29.5683 55.09 29.5871 55.0913 29.6058C55.1176 30.1874 55.1176 30.8502 55.1176 31.4317C55.1176 31.6944 54.9525 31.9282 54.7074 32.0183C52.4049 32.7086 50.7404 34.8447 50.7404 37.3685C50.7404 39.8872 52.4 42.022 54.6836 42.7387C54.9225 42.8162 55.09 43.0463 55.09 43.3052V43.3465C55.1176 44.1881 55.1176 45.2361 55.1176 46.1228C55.1176 46.468 54.8374 46.7482 54.4922 46.7482H26.3532C25.6628 46.7482 25.1026 47.3084 25.1026 47.9988C25.1026 48.6891 25.6628 49.2494 26.3532 49.2494H54.4922C56.2194 49.2494 57.6188 47.85 57.6188 46.1228C57.6188 45.2149 57.6188 44.1406 57.5913 43.2752C57.5813 41.9457 56.7146 40.7652 55.4402 40.355C55.4377 40.355 55.4352 40.3537 55.4327 40.3524C54.1633 39.9547 53.2416 38.7679 53.2416 37.3685C53.2416 35.9765 54.1546 34.7934 55.4227 34.4157C55.4315 34.4132 55.4402 34.4107 55.449 34.407C56.7421 33.9918 57.6188 32.7899 57.6188 31.4317C57.6188 30.8227 57.6188 30.1298 57.5913 29.5183C57.5775 28.1851 56.7121 27.007 55.4402 26.5981C55.4377 26.5981 55.4352 26.5968 55.4327 26.5956C54.1633 26.1979 53.2416 25.011 53.2416 23.6116C53.2416 22.2196 54.1546 21.0366 55.4227 20.6589C55.4315 20.6564 55.4402 20.6538 55.449 20.6501C56.7421 20.2349 57.6188 19.033 57.6188 17.6749V14.8572C57.6188 13.1301 56.2194 11.7307 54.4922 11.7307H52.6163C51.926 11.7307 51.3657 12.2909 51.3657 12.9813C51.3657 13.6716 51.926 14.2319 52.6163 14.2319ZM17.5988 46.7482V43.6116C17.5988 42.9212 17.0385 42.361 16.3482 42.361C15.6578 42.361 15.0976 42.9212 15.0976 43.6116V46.7482H5.71787C5.3727 46.7482 5.09256 46.468 5.09256 46.1228V43.3052C5.09256 43.0426 5.25764 42.8087 5.50277 42.7187C7.80517 42.0283 9.46975 39.8922 9.46975 37.3685C9.46975 34.8497 7.81017 32.7149 5.52653 31.9983C5.28766 31.9207 5.12008 31.6906 5.12008 31.4317C5.12008 31.4117 5.12007 31.393 5.11882 31.3742C5.09255 30.7927 5.09256 30.1299 5.09256 29.5483C5.09256 29.2857 5.25764 29.0518 5.50277 28.9618C7.80517 28.2714 9.46975 26.1354 9.46975 23.6116C9.46975 21.0928 7.81017 18.958 5.52653 18.2414C5.28766 18.1639 5.12008 17.9337 5.12008 17.6749C5.12008 17.6611 5.12008 17.6474 5.12008 17.6336C5.09256 16.7919 5.09256 15.7439 5.09256 14.8572C5.09256 14.512 5.3727 14.2319 5.71787 14.2319H15.0976V18.5991C15.0976 19.2894 15.6578 19.8497 16.3482 19.8497C17.0385 19.8497 17.5988 19.2894 17.5988 18.5991V14.2319H48.8644C49.5548 14.2319 50.1151 13.6716 50.1151 12.9813C50.1151 12.2909 49.5548 11.7307 48.8644 11.7307C48.8644 11.7307 12.5463 11.7307 5.71787 11.7307C3.99076 11.7307 2.59131 13.1301 2.59131 14.8572C2.59131 15.7652 2.59131 16.8395 2.61883 17.7049C2.62883 19.0343 3.49552 20.2149 4.7699 20.6251C4.7724 20.6251 4.7749 20.6264 4.7774 20.6276C6.04679 21.0253 6.9685 22.2121 6.9685 23.6116C6.9685 25.0035 6.05554 26.1866 4.7874 26.5643C4.77865 26.5668 4.7699 26.5693 4.76114 26.5731C3.468 26.9883 2.59131 28.1901 2.59131 29.5483C2.59131 30.1574 2.59131 30.8502 2.61883 31.4618C2.63258 32.7949 3.49802 33.973 4.7699 34.382C4.7724 34.382 4.7749 34.3832 4.7774 34.3845C6.04679 34.7822 6.9685 35.969 6.9685 37.3685C6.9685 38.7604 6.05554 39.9435 4.7874 40.3212C4.77865 40.3237 4.7699 40.3262 4.76114 40.33C3.468 40.7452 2.59131 41.947 2.59131 43.3052V46.1228C2.59131 47.85 3.99076 49.2494 5.71787 49.2494H18.8494C19.5398 49.2494 20.1001 48.6891 20.1001 47.9988C20.1001 47.3084 19.5398 46.7482 18.8494 46.7482H17.5988ZM15.0976 33.6066V38.6091C15.0976 39.2994 15.6578 39.8597 16.3482 39.8597C17.0385 39.8597 17.5988 39.2994 17.5988 38.6091V33.6066C17.5988 32.9162 17.0385 32.356 16.3482 32.356C15.6578 32.356 15.0976 32.9162 15.0976 33.6066ZM15.0976 23.6016V28.6041C15.0976 29.2944 15.6578 29.8547 16.3482 29.8547C17.0385 29.8547 17.5988 29.2944 17.5988 28.6041V23.6016C17.5988 22.9112 17.0385 22.351 16.3482 22.351C15.6578 22.351 15.0976 22.9112 15.0976 23.6016Z" fill="#EB662B"/>
<path fill-rule="evenodd" clip-rule="evenodd" d="M31.2226 23.4176L30.3297 24.7841C30.2452 24.9123 30.117 25.0058 29.9692 25.045L28.3946 25.4719C27.375 25.7479 26.5651 26.5201 26.2378 27.5246C25.912 28.5276 26.1141 29.6286 26.7762 30.4506L27.8004 31.7221C27.8969 31.8412 27.9452 31.992 27.9376 32.1444L27.8562 33.7748C27.8049 34.829 28.2875 35.8396 29.1412 36.4595C29.9964 37.0794 31.1049 37.2272 32.0913 36.8516L33.6162 36.2709C33.761 36.2166 33.9178 36.2166 34.0611 36.2709L35.5875 36.8516C36.5739 37.2272 37.6824 37.0794 38.5376 36.4595C39.3913 35.8396 39.8739 34.829 39.8226 33.7748L39.7412 32.1444C39.7336 31.992 39.7819 31.8412 39.8784 31.7221L40.9025 30.4506C41.5647 29.6286 41.7668 28.5276 41.441 27.5246C41.1137 26.5201 40.3038 25.7479 39.2842 25.4719L37.7096 25.045C37.5618 25.0058 37.4336 24.9123 37.3491 24.7841L36.4562 23.4176C35.8801 22.5338 34.8952 22.0013 33.8394 22.0013C32.7836 22.0013 31.7987 22.5338 31.2226 23.4176ZM33.316 24.7856C33.4322 24.6091 33.6282 24.5021 33.8394 24.5021C34.0506 24.5021 34.2466 24.6091 34.3628 24.7856L35.2556 26.1521C35.6749 26.7946 36.316 27.2591 37.055 27.4597L38.6311 27.8866C38.8347 27.9424 38.9961 28.0962 39.061 28.2968C39.1273 28.4974 39.0866 28.7176 38.9539 28.882L37.9298 30.1535C37.4502 30.7507 37.2043 31.5034 37.2435 32.2696L37.3235 33.8985C37.334 34.1096 37.2375 34.3117 37.0671 34.4354C36.8966 34.5606 36.6749 34.5893 36.4773 34.5138L34.9525 33.9332C34.2346 33.6617 33.4442 33.6617 32.7263 33.9332L31.2015 34.5138C31.0039 34.5893 30.7822 34.5606 30.6117 34.4354C30.4413 34.3117 30.3448 34.1096 30.3553 33.8985L30.4353 32.2696C30.4745 31.5034 30.2286 30.7507 29.749 30.1535L28.7249 28.882C28.5922 28.7176 28.5515 28.4974 28.6178 28.2968C28.6827 28.0962 28.8441 27.9424 29.0477 27.8866L30.6238 27.4597C31.3628 27.2591 32.0039 26.7946 32.4232 26.1521L33.316 24.7856Z" fill="#EB662B"/>
</g>
</g>
<defs>
<clipPath id="clip0_2103_6856">
<rect width="60" height="60" fill="white" transform="translate(0 0.25)"/>
</clipPath>
<clipPath id="clip1_2103_6856">
<rect width="60" height="60" fill="white" transform="translate(0 0.25)"/>
</clipPath>
</defs>
</svg>
